<svg width="443" height="171" viewBox="0 0 443 171" fill="none" xmlns="http://www.w3.org/2000/svg">
<path d="M349.006 118.783C356.059 118.783 362.666 116.888 368.392 113.62L382.47 127.696L397.176 112.985L383.102 98.9136C386.372 93.1851 388.267 86.5767 388.267 79.5232C388.267 57.8737 370.653 40.2617 349.004 40.2617C338.516 40.2617 328.656 44.3449 321.239 51.7583C313.821 59.1738 309.738 69.0354 309.74 79.5211C309.738 90.0109 313.823 99.8705 321.239 107.288C328.659 114.699 338.518 118.783 349.006 118.783ZM335.949 66.4686C339.437 62.9803 344.074 61.0604 349.006 61.0604C359.188 61.0604 367.469 69.3412 367.469 79.5211C367.469 89.701 359.188 97.9817 349.006 97.9817C344.074 97.9817 339.435 96.0618 335.949 92.5736C332.463 89.0873 330.543 84.4529 330.543 79.519C330.543 74.5892 332.463 69.9548 335.949 66.4686Z" fill="black"/>
<path d="M0 0.662109V170.334H443V0.662109H0ZM411.799 139.133H31.2011V31.8632H411.799V139.133Z" fill="black"/>
<path d="M73.8428 50.6621H53.042V120.34H73.8428V50.6621Z" fill="black"/>
</svg>
