<svg width="371" height="387" viewBox="0 0 371 387" fill="none" xmlns="http://www.w3.org/2000/svg">
<path d="M150.429 26.1464C150.429 21.0354 151.944 16.0391 154.784 11.7895C157.623 7.53987 161.659 4.22767 166.381 2.27178C171.103 0.315884 176.299 -0.195867 181.312 0.801239C186.324 1.79835 190.929 4.25953 194.543 7.87355C198.157 11.4876 200.618 16.0921 201.615 21.1049C202.612 26.1177 202.101 31.3136 200.145 36.0355C198.189 40.7575 194.877 44.7934 190.627 47.6329C186.377 50.4724 181.381 51.988 176.27 51.988C172.876 51.9905 169.514 51.3237 166.378 50.0259C163.242 48.7281 160.392 46.8247 157.992 44.4246C155.592 42.0245 153.688 39.1748 152.391 36.0384C151.093 32.9021 150.426 29.5406 150.429 26.1464ZM249.753 152.106C252.275 152.953 255.011 152.917 257.51 152.003C260.009 151.089 262.122 149.352 263.503 147.078C264.884 144.804 265.45 142.127 265.108 139.488C264.766 136.85 263.537 134.406 261.622 132.559L218.909 109.117L220.921 136.066L249.753 152.106ZM370.083 222.469V386.084H0.916016V329.029L117.296 295.435C114.65 295.291 112.108 294.352 110.005 292.74C107.459 290.654 105.77 287.705 105.26 284.454C104.749 281.203 105.453 277.878 107.236 275.112L148.14 211.56L156.28 181.547L180.128 202.59L173.391 226.585L129.534 289.99C128.712 291.048 127.735 291.975 126.636 292.74L225.222 264.277C224.144 264.115 223.095 263.804 222.102 263.354C220.454 262.392 219.056 261.055 218.02 259.451C216.984 257.848 216.34 256.023 216.14 254.125L210.51 201.297L167.17 166.522L161.67 107.031L131.029 159.803C130.402 160.968 129.547 161.994 128.514 162.82C127.481 163.645 126.292 164.254 125.018 164.609C123.744 164.964 122.412 165.058 121.101 164.886C119.79 164.714 118.527 164.278 117.388 163.606C115.307 162.385 113.761 160.425 113.06 158.116C112.359 155.807 112.553 153.318 113.604 151.146C121.837 134.183 141.421 94.2392 153.53 72.7352C174.554 74.0273 197.922 75.6885 199.159 92.7809L204.53 164.51L236.758 190.942L240.376 252.113C240.454 253.701 240.217 255.288 239.679 256.783C239.14 258.279 238.311 259.653 237.238 260.826L370.083 222.469ZM351.624 247L19.3743 342.891V367.626H351.624V247Z" fill="black"/>
</svg>
