<svg width="443" height="443" viewBox="0 0 443 443" fill="none" xmlns="http://www.w3.org/2000/svg">
<path d="M442.916 21.2792C442.592 12.9955 437.659 5.59009 430.143 2.08248C422.627 -1.42427 413.782 -0.435319 407.226 4.63748C404.708 6.58683 345.215 53.1678 309.753 129.215C296.108 158.467 288.297 187.387 283.601 212.395C264.567 204.037 243.584 199.319 221.501 199.319C199.418 199.319 178.434 204.038 159.4 212.395C154.705 187.388 146.893 158.468 133.249 129.215C97.7869 53.1678 38.2924 6.58683 35.7746 4.63748C29.2188 -0.434454 20.3736 -1.42427 12.8575 2.08334C5.34127 5.59009 0.416423 12.9955 0.0841773 21.2792C-0.04128 24.4537 -2.5885 99.9694 32.8735 176.017C50.7482 214.344 74.5002 244.667 94.2057 266.071C76.7593 291.144 66.452 321.549 66.452 354.345C66.452 384.084 74.913 412.975 90.898 437.908C93.0169 441.208 96.5903 443.003 100.223 443.003C102.276 443.003 104.358 442.441 106.196 441.253C111.342 437.953 112.856 431.101 109.548 425.955C95.8444 404.595 88.6016 379.832 88.6016 354.345C88.6016 281.073 148.214 221.469 221.5 221.469C294.786 221.469 354.398 281.074 354.398 354.345C354.398 379.81 347.17 404.551 333.504 425.896C330.196 431.043 331.709 437.886 336.856 441.187C341.935 444.495 348.839 443.003 352.147 437.835C368.109 412.932 376.549 384.064 376.549 354.346C376.549 321.549 366.241 291.152 348.788 266.071C368.493 244.668 392.245 214.344 410.12 176.018C445.589 99.9694 443.042 24.4537 442.916 21.2792ZM131.89 228.475L72.9714 107.486C70.2909 101.963 63.6538 99.7254 58.1605 102.376C52.6672 105.057 50.3709 111.679 53.0514 117.187L114.347 243.05C112.376 244.947 110.25 246.675 108.374 248.675C90.307 228.718 69.0286 201.127 52.9553 166.655C19.3475 94.6025 22.2192 22.1505 22.2192 22.1505C22.2192 22.1505 79.5722 66.5234 113.181 138.577C127.217 168.678 134.681 198.499 138.86 223.41C136.423 224.953 134.23 226.807 131.89 228.475ZM334.634 248.683C332.766 246.682 330.632 244.955 328.661 243.057L389.956 117.195C392.637 111.695 390.34 105.065 384.847 102.384C379.354 99.7341 372.723 101.971 370.036 107.493L311.118 228.483C308.777 226.814 306.585 224.961 304.149 223.418C308.32 198.499 315.785 168.678 329.827 138.584C363.428 66.5312 420.788 22.1582 420.788 22.1582C420.788 22.1582 423.66 94.6102 390.052 166.656C373.971 201.128 352.693 228.719 334.634 248.683Z" fill="black"/>
</svg>
