<svg width="349" height="237" viewBox="0 0 349 237" fill="none" xmlns="http://www.w3.org/2000/svg">
<path fill-rule="evenodd" clip-rule="evenodd" d="M67.1074 0.0859389H189.601C199.655 0.0858741 207.669 0.0858226 214.138 0.614361C220.768 1.15605 226.448 2.29089 231.657 4.9452C240.044 9.21895 246.865 16.0387 251.139 24.4278C253.793 29.6369 254.928 35.3166 255.47 41.9466C255.998 48.4155 255.998 56.429 255.998 66.4831V68.0464L292.278 46.2789C299.319 42.0536 305.06 38.6086 309.793 36.3288C314.554 34.0353 319.45 32.3204 324.591 32.7997C332.023 33.4925 338.805 37.3317 343.223 43.3493C346.279 47.511 347.327 52.5917 347.81 57.8536C348.29 63.0831 348.29 69.7759 348.29 77.9844V159.017C348.29 167.225 348.29 173.918 347.81 179.148C347.327 184.41 346.279 189.491 343.222 193.654C338.805 199.67 332.023 203.51 324.591 204.202C319.45 204.681 314.554 202.967 309.793 200.673C305.059 198.393 299.315 194.946 292.27 190.719L291.953 190.529L255.998 168.956V170.519C255.998 180.573 255.998 188.587 255.47 195.056C254.928 201.686 253.793 207.366 251.139 212.575C246.865 220.963 240.044 227.784 231.656 232.057C231.656 232.057 231.656 232.057 231.656 232.057C226.447 234.711 220.768 235.846 214.138 236.387C207.669 236.916 199.655 236.916 189.601 236.916H67.1071C57.0529 236.916 49.0395 236.916 42.5706 236.387C35.9406 235.846 30.2609 234.711 25.0518 232.057C25.0521 232.057 25.0524 232.057 25.0527 232.057L28.5318 225.227L25.0518 232.057C16.6627 227.783 9.84292 220.962 5.56923 212.574C2.91491 207.365 1.78007 201.686 1.23838 195.056C0.709846 188.586 0.709898 180.573 0.709962 170.519V66.4833C0.709898 56.429 0.709846 48.4155 1.23839 41.9466C1.78007 35.3167 2.91491 29.6371 5.56906 24.4281C9.84312 16.0395 16.6633 9.2192 25.0519 4.94514M240.668 155.278C240.667 155.366 240.667 155.455 240.668 155.543V170.184C240.668 180.648 240.662 188.036 240.191 193.807C239.727 199.489 238.849 202.927 237.48 205.614C234.676 211.118 230.201 215.594 224.697 218.397C222.01 219.767 218.572 220.644 212.89 221.108C207.118 221.58 199.731 221.586 189.267 221.586H67.4416C56.9775 221.586 49.5904 221.58 43.819 221.108C38.1371 220.644 34.6996 219.767 32.0119 218.398L32.011 218.397C26.5077 215.594 22.0327 211.119 19.2282 205.615C17.8588 202.927 16.9817 199.489 16.5175 193.807C16.0459 188.036 16.04 180.648 16.04 170.184V66.8176C16.04 56.3534 16.0459 48.9663 16.5175 43.1949C16.9817 37.513 17.8587 34.0755 19.2282 31.3877C22.0325 25.8837 26.5075 21.4086 32.0115 18.6043C34.6993 17.2348 38.1371 16.3577 43.819 15.8934C49.5904 15.4219 56.9776 15.4159 67.4416 15.4159H189.267C199.731 15.4159 207.118 15.4219 212.89 15.8935C218.572 16.3577 222.009 17.2347 224.697 18.6041C230.201 21.4086 234.676 25.8837 237.479 31.3869L237.48 31.3878C238.849 34.0756 239.727 37.5131 240.191 43.195C240.662 48.9664 240.668 56.3535 240.668 66.8176V81.4586C240.667 81.5471 240.667 81.6358 240.668 81.7245V155.278ZM255.998 151.078L299.84 177.383C307.29 181.853 312.425 184.925 316.446 186.862C320.511 188.82 322.286 189.021 323.169 188.939C326.238 188.653 329.041 187.066 330.866 184.58C331.39 183.866 332.132 182.24 332.544 177.747C332.952 173.303 332.96 167.319 332.96 158.631V78.3707C332.96 69.6827 332.952 63.6987 332.544 59.2545C332.132 54.7615 331.39 53.1365 330.866 52.4227L330.865 52.4216C329.041 49.9362 326.239 48.3498 323.168 48.0635C322.286 47.9813 320.511 48.1816 316.446 50.1398C312.425 52.0767 307.29 55.1489 299.841 59.6188L255.998 85.9241V151.078ZM67.1074 0.0859389C57.0531 0.0858741 49.0396 0.0858231 42.5707 0.614362ZM42.5707 0.614362C35.9408 1.15605 30.261 2.29098 25.0519 4.94514Z" fill="black"/>
</svg>
