<svg width="443" height="443" viewBox="0 0 443 443" fill="none" xmlns="http://www.w3.org/2000/svg">
<path d="M-0.00031094 138.659C-0.00031094 130.98 2.65769 124.483 7.97369 119.167C13.2897 113.851 19.9347 111.045 27.9087 110.75H31.4527C33.8154 101.594 37.8024 92.1436 43.4137 82.3976L40.7557 80.1826C35.1444 74.5713 32.3387 68.0739 32.3387 60.6906C32.3387 53.3073 35.1444 46.6623 40.7557 40.7556C46.367 34.8489 52.8644 32.1909 60.2477 32.7816C67.631 33.3723 74.1284 36.0303 79.7397 40.7556L82.3977 43.4136C91.8484 38.0976 101.299 34.2583 110.75 31.8956V27.9086C110.75 20.2299 113.408 13.7326 118.724 8.41661C124.04 3.10061 130.685 0.294944 138.659 -0.000389136C146.633 -0.295722 153.13 2.50994 158.151 8.41661C163.171 14.3233 165.829 20.8206 166.125 27.9086V31.8956C175.28 33.9629 184.731 37.8023 194.477 43.4136L197.135 40.7556C202.451 35.4396 209.096 32.7816 217.07 32.7816C225.044 32.7816 231.541 35.4396 236.562 40.7556C241.582 46.0716 244.24 52.5689 244.536 60.2476C244.831 67.9263 242.173 74.4236 236.562 79.7396L233.461 82.3976C239.072 92.1436 243.059 101.594 245.422 110.75H249.409C256.792 110.75 263.289 113.555 268.901 119.167C274.512 124.778 277.17 131.275 276.875 138.659C276.579 146.042 273.921 152.539 268.901 158.151C263.88 163.762 257.383 166.42 249.409 166.125H245.422C243.059 175.575 239.072 185.026 233.461 194.477L236.562 197.578C241.878 202.894 244.536 209.391 244.536 217.07C244.536 224.748 241.878 231.246 236.562 236.562C231.246 241.878 224.748 244.536 217.07 244.536C209.391 244.536 202.746 241.878 197.135 236.562L194.477 233.904C184.731 239.22 175.28 243.059 166.125 245.422V249.409C166.125 257.087 163.467 263.585 158.151 268.901C152.835 274.217 146.337 276.875 138.659 276.875C130.98 276.875 124.335 274.217 118.724 268.901C113.112 263.585 110.454 257.087 110.75 249.409V245.422C101.299 243.059 91.8484 239.22 82.3977 233.904L79.7397 236.562C74.4237 241.878 67.9264 244.536 60.2477 244.536C52.569 244.536 46.0717 241.878 40.7557 236.562C35.4397 231.246 32.634 224.748 32.3387 217.07C32.0434 209.391 34.849 202.894 40.7557 197.578L43.4137 194.477C37.8024 185.026 33.8154 175.575 31.4527 166.125H27.9087C20.23 166.125 13.585 163.467 7.97369 158.151C2.36236 152.835 -0.295644 146.337 -0.00031094 138.659ZM83.2837 138.659C83.2837 154.016 88.5997 167.011 99.2317 177.643C109.864 188.275 123.006 193.738 138.659 194.034C154.311 194.329 167.306 188.865 177.643 177.643C187.979 166.42 193.443 153.425 194.034 138.659C194.624 123.892 189.161 110.75 177.643 99.2316C166.125 87.7136 153.13 82.3976 138.659 83.2836C124.187 84.1696 111.045 89.4856 99.2317 99.2316C87.4184 108.978 82.1024 122.12 83.2837 138.659ZM221.5 332.25C221.5 324.571 224.158 318.074 229.474 312.758C234.79 307.442 241.435 304.784 249.409 304.784H254.282C255.168 302.421 256.201 299.763 257.383 296.81L253.839 293.266C248.523 287.95 245.865 281.452 245.865 273.774C245.865 266.095 248.523 259.598 253.839 254.282C259.155 248.966 265.8 246.16 273.774 245.865C281.748 245.569 288.245 248.375 293.266 254.282L296.367 257.383C299.32 256.497 302.126 255.611 304.784 254.725V249.409C304.784 241.73 307.442 235.233 312.758 229.917C318.074 224.601 324.571 221.795 332.25 221.5C339.928 221.204 346.426 224.01 351.742 229.917C357.058 235.823 359.863 242.321 360.159 249.409V254.725C361.931 255.315 364.589 256.201 368.133 257.383L371.234 254.282C376.55 248.67 383.047 245.865 390.726 245.865C398.404 245.865 405.049 248.67 410.661 254.282C416.272 259.893 418.93 266.39 418.635 273.774C418.339 281.157 415.681 287.654 410.661 293.266L407.117 296.81C407.412 297.696 407.855 299.025 408.446 300.797C409.036 302.569 409.627 303.898 410.218 304.784H415.534C422.917 304.784 429.414 307.442 435.026 312.758C440.637 318.074 443.295 324.571 443 332.25C442.704 339.928 440.046 346.573 435.026 352.185C430.005 357.796 423.508 360.454 415.534 360.159H410.218C409.627 361.931 408.593 364.589 407.117 368.133L410.661 371.677C415.977 376.993 418.635 383.49 418.635 391.169C418.635 398.847 415.977 405.345 410.661 410.661C405.345 415.977 398.7 418.782 390.726 419.078C382.752 419.373 376.254 416.567 371.234 410.661L368.133 407.117L360.159 410.661V415.534C360.159 423.212 357.353 429.71 351.742 435.026C346.13 440.342 339.633 443 332.25 443C324.866 443 318.369 440.342 312.758 435.026C307.146 429.71 304.488 423.212 304.784 415.534V410.661L296.367 407.117L293.266 410.661C287.95 416.272 281.452 419.078 273.774 419.078C266.095 419.078 259.45 416.272 253.839 410.661C248.227 405.049 245.569 398.552 245.865 391.169C246.16 383.785 248.818 377.288 253.839 371.677L257.383 368.133C255.906 364.589 254.872 361.931 254.282 360.159H249.409C241.73 360.159 235.085 357.501 229.474 352.185C223.862 346.869 221.204 340.224 221.5 332.25ZM276.875 332.25C276.875 347.607 282.338 360.749 293.266 371.677C304.193 382.604 317.188 387.92 332.25 387.625C347.312 387.329 360.306 382.013 371.234 371.677C382.161 361.34 387.625 348.198 387.625 332.25C387.625 316.302 382.161 303.307 371.234 293.266C360.306 283.224 347.312 277.761 332.25 276.875C317.188 275.989 304.193 281.452 293.266 293.266C282.338 305.079 276.875 318.074 276.875 332.25Z" fill="black"/>
</svg>
