<svg width="341" height="157" viewBox="0 0 341 157" fill="none" xmlns="http://www.w3.org/2000/svg">
<path d="M170.5 152.333L336.625 78.4993L170.5 4.66602L4.375 78.4993L170.5 152.333Z" fill="black"/>
<path fill-rule="evenodd" clip-rule="evenodd" d="M168.807 0.859118C169.885 0.380294 171.115 0.380294 172.192 0.859118L338.317 74.6924C339.822 75.3612 340.791 76.8534 340.791 78.5C340.791 80.1466 339.822 81.6388 338.317 82.3075L172.192 156.141C171.115 156.62 169.885 156.62 168.807 156.141L2.68243 82.3075C1.17773 81.6388 0.208008 80.1466 0.208008 78.5C0.208008 76.8534 1.17773 75.3612 2.68243 74.6924L168.807 0.859118ZM14.6339 78.5L170.5 147.774L326.365 78.5L170.5 9.22632L14.6339 78.5Z" fill="black"/>
</svg>
