<svg width="443" height="353" viewBox="0 0 443 353" fill="none" xmlns="http://www.w3.org/2000/svg">
<path d="M331.407 215.615C317.749 263.459 273.726 298.503 221.491 298.503C169.265 298.503 125.242 263.459 111.592 215.615H0V352.807H443V215.615H331.407Z" fill="black"/>
<path d="M414.414 171.67H28.5762V190.97H414.414V171.67Z" fill="black"/>
<path d="M304.695 214.543H138.314C140.799 221.453 144.144 227.92 148.178 233.835H294.79C298.866 227.92 302.211 221.453 304.695 214.543Z" fill="black"/>
<path d="M271.13 257.418H171.835C186.158 267.145 203.348 272.77 221.483 272.77C239.618 272.77 256.809 267.145 271.13 257.418Z" fill="black"/>
<path d="M414.414 128.805H28.5762V148.098H414.414V128.805Z" fill="black"/>
<path d="M414.414 85.9395H28.5762V105.223H414.414V85.9395Z" fill="black"/>
<path d="M414.414 43.0664H28.5762V62.3499H414.414V43.0664Z" fill="black"/>
<path d="M414.414 0.191406H28.5762V19.4844H414.414V0.191406Z" fill="black"/>
</svg>
