<svg width="417" height="347" viewBox="0 0 417 347" fill="none" xmlns="http://www.w3.org/2000/svg">
<path fill-rule="evenodd" clip-rule="evenodd" d="M97.75 222.062C94.0784 222.062 90.5572 223.521 87.961 226.117C85.3648 228.713 83.9062 232.235 83.9062 235.906C83.9062 239.578 85.3648 243.099 87.961 245.695C90.5572 248.291 94.0784 249.75 97.75 249.75H208.5C212.172 249.75 215.693 248.291 218.289 245.695C220.885 243.099 222.344 239.578 222.344 235.906C222.344 232.235 220.885 228.713 218.289 226.117C215.693 223.521 212.172 222.062 208.5 222.062H97.75Z" fill="black"/>
<path fill-rule="evenodd" clip-rule="evenodd" d="M125.438 180.531C121.766 180.531 118.245 181.99 115.648 184.586C113.052 187.182 111.594 190.703 111.594 194.375C111.594 198.047 113.052 201.568 115.648 204.164C118.245 206.76 121.766 208.219 125.438 208.219H208.5C212.172 208.219 215.693 206.76 218.289 204.164C220.885 201.568 222.344 198.047 222.344 194.375C222.344 190.703 220.885 187.182 218.289 184.586C215.693 181.99 212.172 180.531 208.5 180.531H125.438Z" fill="black"/>
<path fill-rule="evenodd" clip-rule="evenodd" d="M166.969 139C163.297 139 159.776 140.458 157.18 143.055C154.584 145.651 153.125 149.172 153.125 152.844C153.125 156.515 154.584 160.036 157.18 162.633C159.776 165.229 163.297 166.688 166.969 166.688H208.5C212.172 166.688 215.693 165.229 218.289 162.633C220.885 160.036 222.344 156.515 222.344 152.844C222.344 149.172 220.885 145.651 218.289 143.055C215.693 140.458 212.172 139 208.5 139H166.969Z" fill="black"/>
<path fill-rule="evenodd" clip-rule="evenodd" d="M110.052 56.0189C106.932 56.3703 104.024 57.7718 101.806 59.9936L76.9842 84.815L66.0066 73.8373C63.4104 71.2418 59.8897 69.7837 56.2186 69.7837C52.5475 69.7837 49.0267 71.2418 46.4306 73.8373C43.8351 76.4335 42.377 79.9542 42.377 83.6253C42.377 87.2964 43.8351 90.8172 46.4306 93.4133L67.1963 114.179C69.7926 116.774 73.3133 118.232 76.9842 118.232C80.6552 118.232 84.1759 116.774 86.7722 114.179L121.382 79.5695C123.977 76.9734 125.435 73.4526 125.435 69.7816C125.435 66.1105 123.977 62.5897 121.382 59.9936C119.913 58.5231 118.132 57.4024 116.17 56.7143C114.209 56.0262 112.118 55.7885 110.052 56.0189Z" fill="black"/>
<path fill-rule="evenodd" clip-rule="evenodd" d="M83.9062 0.5625C38.1962 0.5625 0.84375 37.915 0.84375 83.625C0.84375 108.101 11.5636 130.176 28.5312 145.408V305.125C28.5316 308.796 29.9903 312.317 32.5864 314.913C35.1825 317.51 38.7035 318.968 42.375 318.969H72.4689C78.2237 335.033 93.6612 346.656 111.594 346.656C129.526 346.656 144.964 335.033 150.719 318.969H250.031H280.125C285.88 335.033 301.317 346.656 319.25 346.656C337.183 346.656 352.62 335.033 358.375 318.969H402.312C405.984 318.968 409.505 317.51 412.101 314.913C414.697 312.317 416.156 308.796 416.156 305.125V208.219C416.159 205.074 415.091 202.023 413.128 199.566L357.753 130.348C356.455 128.727 354.809 127.418 352.937 126.52C351.065 125.621 349.014 125.155 346.938 125.156H263.875V97.4688C263.875 93.7973 262.416 90.2761 259.82 87.6799C257.224 85.0838 253.703 83.6254 250.031 83.625H166.969C166.969 37.915 129.616 0.5625 83.9062 0.5625ZM83.9062 28.25C114.653 28.25 139.281 52.8783 139.281 83.625C139.281 114.372 114.653 139 83.9062 139C72.1727 139 61.3291 135.411 52.4063 129.266C51.3368 128.136 50.0845 127.195 48.702 126.481C36.3605 116.353 28.5312 100.961 28.5312 83.625C28.5312 52.8783 53.1596 28.25 83.9062 28.25ZM162.183 111.312H236.188V291.281H150.719C144.964 275.217 129.526 263.594 111.594 263.594C93.6612 263.594 78.2237 275.217 72.4689 291.281H56.2188V161.902C64.8887 164.988 74.2066 166.688 83.9062 166.688C119.917 166.688 150.723 143.5 162.183 111.312ZM263.875 152.844H291.562V222.062C291.563 225.734 293.022 229.255 295.618 231.851C298.214 234.447 301.735 235.906 305.406 235.906H388.469V291.281H358.375C352.62 275.217 337.183 263.594 319.25 263.594C301.317 263.594 285.88 275.217 280.125 291.281H263.875V152.844ZM319.25 152.844H340.286L384.575 208.219H319.25V152.844ZM111.594 291.281C119.403 291.281 125.438 297.315 125.438 305.125C125.438 312.935 119.403 318.969 111.594 318.969C103.784 318.969 97.75 312.935 97.75 305.125C97.75 297.315 103.784 291.281 111.594 291.281ZM319.25 291.281C327.06 291.281 333.094 297.315 333.094 305.125C333.094 312.935 327.06 318.969 319.25 318.969C311.44 318.969 305.406 312.935 305.406 305.125C305.406 297.315 311.44 291.281 319.25 291.281Z" fill="black"/>
</svg>
