<svg width="409" height="413" viewBox="0 0 409 413" fill="none" xmlns="http://www.w3.org/2000/svg">
<path d="M248.519 0.764315C248.112 0.762584 247.71 0.776429 247.302 0.790272C247.166 0.794598 247.031 0.811039 246.896 0.81623C245.526 0.864683 244.148 0.992737 242.76 1.22289C239.636 1.73943 236.694 2.69379 233.971 4.00894L25.9113 88.8815C25.117 89.2449 24.3469 89.6403 23.5855 90.0435C23.0681 90.3187 22.5473 90.5886 22.0454 90.8828C10.1943 97.5192 2.21598 109.776 1.11713 123.463C1.06695 124.013 1.0358 124.562 1.00898 125.113C0.694899 131.422 1.8249 137.884 4.60489 144.013C14.0429 164.829 38.7505 173.94 60.1962 164.266L60.2767 164.24L261.065 63.7084L261.2 63.6262L261.336 63.5717C278.369 55.8495 285.823 36.3722 278.343 19.8773C272.91 7.89385 261.108 0.781619 248.519 0.761719V0.764315ZM248.761 16.9598C256.482 17.2263 263.074 22.8174 264.391 30.7758C265.894 39.8694 259.884 48.2795 250.789 49.785C241.694 51.2888 233.311 45.2772 231.808 36.1835C230.304 27.0899 236.314 18.6799 245.409 17.1761C246.545 16.9875 247.659 16.9208 248.761 16.9598ZM289.293 59.9775C284.307 67.6383 277.174 74.0523 268.285 78.1474C268.192 78.1907 268.107 78.2409 268.013 78.2824L253.763 85.4206L303.542 170.133C309.677 159.951 320.533 153.601 332.147 152.962C333.523 152.887 334.899 152.902 336.286 152.988L289.293 59.9775ZM41.7546 101.832C42.1734 101.828 42.5852 101.845 42.9988 101.86C54.5869 102.274 64.5224 110.7 66.4951 122.626C68.7499 136.253 59.6831 148.951 46.0539 151.206C32.4248 153.461 19.7283 144.366 17.4753 130.738C15.2196 117.111 24.3132 104.439 37.9424 102.185C39.2203 101.973 40.4991 101.851 41.7546 101.833V101.832ZM93.8313 165.509L79.2841 172.81L86.0451 191.521L42.1085 184.409L42.0531 184.247C35.7611 184.19 29.566 183.128 23.6928 181.138L75.1743 322.469L74.8239 323.146L75.4728 323.308L90.1004 363.46C94.0909 359.316 98.4967 355.565 103.269 352.32L94.3747 327.906L139.042 338.775H139.068C142.496 338.339 145.989 338.1 149.533 338.1C151.83 338.1 154.094 338.211 156.345 338.396L93.8322 165.512L93.8313 165.509ZM333.879 169.052C333.564 169.052 333.248 169.062 332.935 169.077C325.39 169.453 318.52 174.254 315.765 181.866C312.093 192.017 317.241 202.99 327.391 206.661C337.543 210.333 348.542 205.185 352.215 195.035C355.886 184.882 350.738 173.912 340.586 170.24C338.366 169.436 336.099 169.05 333.88 169.051L333.879 169.052ZM367.76 177.539C370.121 184.803 370.188 192.866 367.408 200.55C367.014 201.644 366.548 202.711 366.058 203.741L390.229 208.068L386.444 252.411L369.654 262.415L377.928 276.313L398.287 264.172L401.857 262.063L402.209 257.925L407.671 193.952L408.482 184.625L406.725 184.732L367.761 177.539H367.76ZM298.46 188.248L260.39 211.419L260.308 211.447V211.473L260.254 211.499L260.39 211.636L264.257 219.856L291.511 277.988L293.269 281.747L297.353 282.503L320.632 286.829L323.605 270.93L304.379 267.36L285.805 227.721L309.03 213.717C302.307 207.021 298.432 197.802 298.458 188.246L298.46 188.248ZM48.4602 201.822L78.8783 206.743L62.791 241.218L48.4593 201.824L48.4602 201.822ZM93.8036 212.989L109.675 256.926L76.9593 249.087L93.8054 212.989H93.8036ZM71.2271 264.335L101.779 271.664L85.3131 303.081L71.2271 264.335ZM117.057 277.34L132.712 320.576L98.7251 312.33L117.058 277.34H117.057ZM149.529 354.265C115.534 354.265 87.6864 379.638 83.7176 412.535H103.185C107.044 390.471 126.4 373.573 149.53 373.573C172.658 373.573 191.99 390.471 195.846 412.535H215.314C211.345 379.638 183.525 354.266 149.53 354.266L149.529 354.265ZM149.529 389.74C135.205 389.74 123.382 399.383 119.841 412.535H179.191C175.65 399.383 163.855 389.741 149.531 389.741L149.529 389.74Z" fill="black"/>
</svg>
