<svg width="443" height="443" viewBox="0 0 443 443" fill="none" xmlns="http://www.w3.org/2000/svg">
<path d="M296.727 165.779L415.811 47.4288L415.424 114.516C415.299 120.108 419.729 124.968 425.336 124.843L432.438 124.829C438.03 124.705 442.668 121.368 442.793 115.775L443.083 15.8374C443.083 15.7405 442.71 15.6713 442.71 15.5743L443.263 10.5075C443.319 7.69725 442.654 5.19153 440.855 3.40569C439.055 1.59216 436.549 0.4985 433.767 0.581562L428.7 0.706156C428.603 0.706156 428.534 0.747687 428.423 0.761531L329.136 0.318531C323.543 0.443125 318.919 5.06694 318.794 10.6737L318.78 17.7755C319.625 24.3651 324.816 28.2275 330.409 28.1029L395.835 28.2829L277.166 146.232C271.767 151.631 271.767 160.408 277.166 165.821C282.565 171.233 291.328 171.22 296.741 165.821L296.727 165.779ZM146.703 277.221L27.6187 395.212L27.9925 328.485C28.1309 322.892 23.6732 318.019 18.0803 318.143L10.5493 318.157C4.94261 318.296 0.318801 321.618 0.194208 327.211L-0.0965111 427.149C-0.0965111 427.246 0.291114 427.301 0.291114 427.412L-0.262636 432.465C-0.331855 435.275 0.332645 437.795 2.14618 439.581C3.93202 441.394 6.45158 442.488 9.23417 442.419L14.301 442.294C14.3979 442.294 14.4671 442.253 14.5779 442.253L114.294 442.696C119.887 442.557 124.511 437.933 124.65 432.34L124.663 425.225C123.805 418.635 118.627 414.773 113.035 414.897L47.609 414.731L166.264 296.81C171.663 291.411 171.663 282.648 166.264 277.235C160.865 271.822 152.102 271.808 146.703 277.221ZM443.097 427.149L442.807 327.211C442.682 321.618 438.058 318.282 432.465 318.157L425.363 318.143C419.771 318.019 415.327 322.892 415.451 328.485L415.839 395.571L296.755 277.221C291.356 271.822 282.593 271.822 277.18 277.221C271.767 282.62 271.781 291.383 277.18 296.796L395.835 414.717L330.409 414.883C324.816 414.759 319.625 418.621 318.78 425.211L318.794 432.327C318.919 437.919 323.557 442.557 329.136 442.682L428.423 442.239C428.534 442.239 428.603 442.28 428.7 442.28L433.767 442.405C436.549 442.474 439.083 441.38 440.855 439.567C442.668 437.781 443.319 435.261 443.263 432.451L442.71 427.398C442.71 427.287 443.083 427.232 443.083 427.135L443.097 427.149ZM47.609 28.2552L113.048 28.0891C118.641 28.2137 123.819 24.3513 124.677 17.7617L124.663 10.6598C124.525 5.05309 119.901 0.429281 114.308 0.304688L14.5779 0.733844C14.4671 0.72 14.3979 0.678469 14.301 0.678469L9.23417 0.553875C6.45158 0.484656 3.93202 1.57831 2.14618 3.378C0.318802 5.17769 -0.331855 7.66956 -0.262636 10.4937L0.291114 15.5605C0.291114 15.6574 -0.0965111 15.7266 -0.0965111 15.8374L0.194208 115.775C0.318801 121.368 4.94261 124.705 10.5493 124.829L18.0942 124.843C23.6871 124.968 28.1171 120.108 27.9925 114.516L27.6048 47.8026L146.689 165.793C152.088 171.192 160.865 171.192 166.264 165.793C171.663 160.394 171.663 151.617 166.264 146.204L47.609 28.2552Z" fill="black"/>
</svg>
