<svg width="371" height="371" viewBox="0 0 371 371" fill="none" xmlns="http://www.w3.org/2000/svg">
<path fill-rule="evenodd" clip-rule="evenodd" d="M167.144 0.91602H203.857C229.44 0.915835 249.787 0.915837 266.193 2.27825C282.995 3.67351 297.312 6.59288 310.386 13.385C330.614 23.8924 347.107 40.3853 357.615 60.613C364.408 73.6886 367.326 88.0045 368.721 104.807C370.084 121.213 370.084 141.559 370.084 167.143V203.856C370.084 229.439 370.084 249.786 368.721 266.192C367.326 282.994 364.408 297.311 357.615 310.385C347.107 330.613 330.614 347.106 310.386 357.614C297.312 364.407 282.995 367.325 266.193 368.721C249.787 370.083 229.44 370.083 203.857 370.083H167.144C141.56 370.083 121.214 370.083 104.808 368.721C88.0054 367.325 73.6895 364.407 60.614 357.614C40.3863 347.106 23.8934 330.613 13.386 310.385C6.59386 297.311 3.67449 282.994 2.27922 266.192C0.916813 249.786 0.916812 229.439 0.916996 203.856V167.143C0.916812 141.559 0.916813 121.213 2.27922 104.807C3.67449 88.0045 6.59386 73.6886 13.386 60.613C23.8934 40.3853 40.3863 23.8924 60.614 13.385C73.6895 6.59288 88.0054 3.67351 104.808 2.27825C121.214 0.915837 141.56 0.915835 167.144 0.91602ZM107.863 39.0683C93.3849 40.2705 84.5595 42.5466 77.6317 46.1454C64.1466 53.1503 53.1513 64.1456 46.1464 77.6307C42.5476 84.5585 40.2715 93.384 39.0693 107.862C37.8484 122.561 37.8337 141.375 37.8337 167.964V203.035C37.8337 229.624 37.8484 248.437 39.0693 263.137C40.2715 277.616 42.5476 286.441 46.1464 293.368C53.1513 306.854 64.1466 317.849 77.6317 324.854C84.5595 328.452 93.3849 330.728 107.863 331.931C122.562 333.151 141.376 333.166 167.965 333.166H203.036C229.625 333.166 248.438 333.151 263.138 331.931C277.617 330.728 286.442 328.452 293.369 324.854C306.855 317.849 317.85 306.854 324.855 293.368C328.453 286.441 330.729 277.616 331.932 263.137C333.152 248.437 333.167 229.624 333.167 203.035V167.964C333.167 141.375 333.152 122.561 331.932 107.862C330.729 93.384 328.453 84.5585 324.855 77.6307C317.85 64.1456 306.855 53.1503 293.369 46.1454C286.442 42.5466 277.617 40.2705 263.138 39.0683C248.438 37.8475 229.625 37.8327 203.036 37.8327H167.965C141.376 37.8327 122.562 37.8475 107.863 39.0683ZM182.333 88.729C192.527 88.729 200.791 96.9929 200.791 107.187V198.872L265.892 223.621C275.422 227.243 280.21 237.904 276.587 247.433C272.965 256.963 262.304 261.751 252.775 258.127L175.775 228.858C168.611 226.134 163.875 219.267 163.875 211.603V107.187C163.875 96.9929 172.138 88.729 182.333 88.729Z" fill="black"/>
</svg>
