<svg width="151" height="63" viewBox="0 0 151 63" fill="none" xmlns="http://www.w3.org/2000/svg">
<path d="M133.49 39.9988V22.7188H145.97V26.7828H137.842V39.9988H133.49Z" fill="#FF2D1F"/>
<path d="M121.203 40.4783C119.464 40.4783 117.939 40.0889 116.627 39.3103C115.315 38.5316 114.291 37.4596 113.555 36.0943C112.829 34.7183 112.467 33.1396 112.467 31.3583C112.467 29.5556 112.84 27.9716 113.587 26.6063C114.333 25.2303 115.363 24.1583 116.675 23.3903C117.987 22.6223 119.496 22.2383 121.203 22.2383C122.941 22.2383 124.467 22.6276 125.779 23.4063C127.101 24.1849 128.131 25.2623 128.867 26.6383C129.603 28.0036 129.971 29.5769 129.971 31.3583C129.971 33.1503 129.597 34.7343 128.851 36.1103C128.115 37.4756 127.085 38.5476 125.763 39.3263C124.451 40.0943 122.931 40.4783 121.203 40.4783ZM121.203 36.4143C122.6 36.4143 123.64 35.9449 124.323 35.0063C125.016 34.0569 125.363 32.8409 125.363 31.3583C125.363 29.8223 125.011 28.5956 124.307 27.6783C123.613 26.7609 122.579 26.3023 121.203 26.3023C120.253 26.3023 119.475 26.5156 118.867 26.9423C118.259 27.3689 117.805 27.9609 117.507 28.7183C117.219 29.4756 117.075 30.3556 117.075 31.3583C117.075 32.9049 117.421 34.1369 118.115 35.0543C118.819 35.9609 119.848 36.4143 121.203 36.4143Z" fill="#FF2D1F"/>
<path d="M92.1406 39.9988V36.3827C92.77 36.5001 93.2553 36.4948 93.5966 36.3668C93.938 36.2281 94.194 35.9614 94.3646 35.5668C94.546 35.1614 94.7006 34.6121 94.8286 33.9188C94.9993 33.0014 95.1486 31.9294 95.2766 30.7027C95.4153 29.4761 95.5326 28.1801 95.6286 26.8147C95.7246 25.4387 95.81 24.0734 95.8846 22.7188H108.941V39.9988H104.589V26.7828H99.6926C99.65 27.3374 99.5913 27.9988 99.5166 28.7668C99.4526 29.5347 99.378 30.3347 99.2926 31.1667C99.218 31.9881 99.1326 32.7774 99.0366 33.5347C98.9406 34.2814 98.8393 34.9214 98.7326 35.4548C98.4766 36.8094 98.098 37.8761 97.5966 38.6547C97.0953 39.4334 96.4073 39.9294 95.5326 40.1428C94.658 40.3668 93.5273 40.3188 92.1406 39.9988Z" fill="#FF2D1F"/>
<path d="M81.7082 40.5105C80.0442 40.4892 78.6362 40.1212 77.4842 39.4065C76.3322 38.6812 75.4256 37.6838 74.7642 36.4145C74.1136 35.1345 73.7082 33.6518 73.5482 31.9665C73.4629 31.0598 73.4416 30.0412 73.4842 28.9105C73.5376 27.7692 73.6602 26.6492 73.8522 25.5505C74.0442 24.4518 74.3162 23.5078 74.6682 22.7185C75.0096 21.9825 75.4469 21.3105 75.9802 20.7025C76.5242 20.0838 77.1002 19.5612 77.7082 19.1345C78.4229 18.6332 79.1909 18.2492 80.0122 17.9825C80.8336 17.7052 81.6976 17.4918 82.6042 17.3425C83.5109 17.1932 84.4496 17.0598 85.4202 16.9425C86.4016 16.8252 87.3936 16.6705 88.3962 16.4785L88.7802 20.3185C88.1722 20.4785 87.4789 20.5958 86.7002 20.6705C85.9216 20.7452 85.1216 20.8252 84.3002 20.9105C83.4789 20.9852 82.6949 21.1078 81.9482 21.2785C81.2016 21.4492 80.5562 21.7052 80.0122 22.0465C79.2762 22.5052 78.7109 23.1452 78.3162 23.9665C77.9322 24.7772 77.7082 25.5985 77.6442 26.4305C78.3056 25.4705 79.1109 24.8092 80.0602 24.4465C81.0202 24.0838 81.9642 23.9025 82.8922 23.9025C84.4176 23.9025 85.7242 24.2705 86.8122 25.0065C87.9109 25.7318 88.7536 26.7132 89.3402 27.9505C89.9269 29.1772 90.2202 30.5372 90.2202 32.0305C90.2202 33.7265 89.8522 35.2145 89.1162 36.4945C88.3909 37.7745 87.3882 38.7718 86.1082 39.4865C84.8282 40.1905 83.3616 40.5319 81.7082 40.5105ZM81.9002 36.4465C83.1376 36.4465 84.0709 36.0625 84.7002 35.2945C85.3296 34.5265 85.6442 33.5025 85.6442 32.2225C85.6442 30.9105 85.3189 29.8812 84.6682 29.1345C84.0282 28.3772 83.1056 27.9985 81.9002 27.9985C80.6736 27.9985 79.7402 28.3772 79.1002 29.1345C78.4709 29.8812 78.1562 30.9105 78.1562 32.2225C78.1562 33.5772 78.4816 34.6225 79.1322 35.3585C79.7829 36.0839 80.7056 36.4465 81.9002 36.4465Z" fill="#FF2D1F"/>
<path d="M42.3652 39.9988V22.7188H46.5252V36.1588H50.8772V22.7188H55.0372V36.1588H59.3892V22.7188H63.5492V39.9988H42.3652Z" fill="#FF2D1F"/>
<path d="M28.5393 40.4783C27.302 40.4783 26.2513 40.2436 25.3873 39.7743C24.534 39.2943 23.8833 38.6596 23.4353 37.8703C22.998 37.0703 22.7793 36.1903 22.7793 35.2303C22.7793 34.4303 22.902 33.6996 23.1473 33.0383C23.3926 32.3769 23.7873 31.7956 24.3313 31.2943C24.886 30.7823 25.6273 30.3556 26.5553 30.0143C27.1953 29.7796 27.958 29.5716 28.8433 29.3903C29.7286 29.2089 30.7313 29.0383 31.8513 28.8783C32.9713 28.7076 34.2033 28.5209 35.5473 28.3183L33.9793 29.1823C33.9793 28.1583 33.734 27.4063 33.2433 26.9263C32.7526 26.4463 31.9313 26.2063 30.7793 26.2063C30.1393 26.2063 29.4726 26.3609 28.7793 26.6703C28.086 26.9796 27.6006 27.5289 27.3233 28.3183L23.3873 27.0703C23.8246 25.6409 24.646 24.4783 25.8513 23.5823C27.0566 22.6863 28.6993 22.2383 30.7793 22.2383C32.3046 22.2383 33.6593 22.4729 34.8433 22.9423C36.0273 23.4116 36.9233 24.2223 37.5313 25.3743C37.8726 26.0143 38.0753 26.6543 38.1393 27.2943C38.2033 27.9343 38.2353 28.6489 38.2353 29.4383V39.9983H34.4273V36.4463L34.9713 37.1823C34.1286 38.3449 33.2166 39.1876 32.2353 39.7103C31.2646 40.2223 30.0326 40.4783 28.5393 40.4783ZM29.4673 37.0543C30.2673 37.0543 30.9393 36.9156 31.4833 36.6383C32.038 36.3503 32.4753 36.0249 32.7953 35.6623C33.126 35.2996 33.35 34.9956 33.4673 34.7503C33.6913 34.2809 33.8193 33.7369 33.8513 33.1183C33.894 32.4889 33.9153 31.9663 33.9153 31.5503L35.1953 31.8703C33.9046 32.0836 32.8593 32.2649 32.0593 32.4143C31.2593 32.5529 30.614 32.6809 30.1233 32.7983C29.6326 32.9156 29.2006 33.0436 28.8273 33.1823C28.4006 33.3529 28.054 33.5396 27.7873 33.7423C27.5313 33.9343 27.3393 34.1476 27.2113 34.3823C27.094 34.6169 27.0353 34.8783 27.0353 35.1663C27.0353 35.5609 27.1313 35.9023 27.3233 36.1903C27.526 36.4676 27.8086 36.6809 28.1713 36.8303C28.534 36.9796 28.966 37.0543 29.4673 37.0543Z" fill="#FF2D1F"/>
<path d="M0.240234 39.999V16.959H4.59223V26.431H14.8962V16.959H19.2482V39.999H14.8962V30.495H4.59223V39.999H0.240234Z" fill="#FF2D1F"/>
<path fill-rule="evenodd" clip-rule="evenodd" d="M142.25 31.2377C145.372 28.1957 146.716 25.2826 146.384 22.6271C146.051 19.9715 144.032 17.479 140.257 15.2995C136.5 13.1302 131.173 11.3766 124.616 10.1463C111.516 7.68799 93.7384 7.36114 74.4047 9.77904C55.071 12.197 37.9217 16.8918 25.8299 22.5007C19.7786 25.3077 15.0472 28.3193 11.9399 31.3471C8.81808 34.389 7.47474 37.3021 7.80685 39.9577C8.13896 42.6132 10.1583 45.1058 13.9332 47.2852C17.6904 49.4545 23.0177 51.2081 29.5739 52.4384C42.6746 54.8967 60.4519 55.2236 79.7857 52.8057C99.1194 50.3878 116.269 45.6929 128.36 40.084C134.412 37.277 139.143 34.2655 142.25 31.2377ZM79.9098 53.7979C118.725 48.9437 148.93 34.9325 147.376 22.503C145.821 10.0735 113.096 3.93252 74.2806 8.78677C35.4657 13.641 5.26013 27.6523 6.81458 40.0818C8.36903 52.5113 41.0949 58.6522 79.9098 53.7979Z" fill="#FF2D1F"/>
</svg>
