<svg width="91" height="62" viewBox="0 0 91 62" fill="none" xmlns="http://www.w3.org/2000/svg">
<path fill-rule="evenodd" clip-rule="evenodd" d="M45.5776 6C42.2012 6.00072 39.464 8.73754 39.4629 12.1143C39.4618 15.4912 42.1982 18.23 45.5755 18.232C48.9516 18.234 51.6911 15.4993 51.6949 12.123M45.5789 6C47.2016 6.00108 48.7573 6.64648 49.9043 7.7944C51.0509 8.94208 51.695 10.4984 51.6949 12.1214M33.4629 12.1124C33.465 5.42243 38.8887 0 45.5789 0H45.5802C48.7947 0.00143552 51.8768 1.27967 54.1487 3.5536C56.4209 5.82769 57.696 8.91102 57.6949 12.125L57.6949 12.1266C57.689 18.8168 52.2616 24.2359 45.5719 24.232C38.882 24.2281 33.4608 18.8027 33.4629 12.1124Z" fill="#FF2D1F"/>
<path fill-rule="evenodd" clip-rule="evenodd" d="M36.0922 31.6773C36.1236 31.6763 36.1551 31.6758 36.1865 31.6758H54.9865C55.0179 31.6758 55.0493 31.6763 55.0807 31.6773C63.2681 31.9346 69.7721 38.646 69.7721 46.8378C69.7721 55.0295 63.2681 61.741 55.0807 61.9983C55.0493 61.9993 55.0179 61.9998 54.9865 61.9998H36.1865C36.1551 61.9998 36.1236 61.9993 36.0922 61.9983C27.9046 61.741 21.4004 55.0296 21.4004 46.8378C21.4004 38.6459 27.9046 31.9345 36.0922 31.6773ZM36.2369 37.6758C31.3084 37.8538 27.4004 41.9011 27.4004 46.8378C27.4004 51.7745 31.3084 55.8218 36.2369 55.9998H54.9361C59.8641 55.8218 63.7721 51.7746 63.7721 46.8378C63.7721 41.901 59.8641 37.8538 54.9361 37.6758H36.2369Z" fill="#FF2D1F"/>
<path fill-rule="evenodd" clip-rule="evenodd" d="M70.7786 15.1211C68.5853 15.1211 66.8071 16.8989 66.8066 19.0924C66.8062 21.2859 68.5837 23.0643 70.7768 23.065H70.7771C72.9701 23.0659 74.749 21.2891 74.7506 19.0958M60.8066 19.0912C60.8078 13.5846 65.272 9.12109 70.7786 9.12109C73.4242 9.12109 75.9615 10.1725 77.8318 12.0439C79.7021 13.9153 80.7518 16.453 80.7506 19.0984V19.099C80.7472 24.6053 76.2816 29.0671 70.7749 29.065M70.7786 15.1211C71.8323 15.1211 72.8429 15.5399 73.5879 16.2852ZM74.7506 19.0952C74.7509 18.0412 74.3327 17.0305 73.5879 16.2853L73.5879 16.2852M60.8066 19.0912C60.8055 24.5976 65.2678 29.0631 70.7746 29.065Z" fill="#FF2D1F"/>
<path fill-rule="evenodd" clip-rule="evenodd" d="M9.33594 19.097C9.33594 13.5896 13.8006 9.125 19.3079 9.125C24.8153 9.125 29.2799 13.5896 29.2799 19.097C29.2799 24.6044 24.8153 29.069 19.3079 29.069C13.8006 29.069 9.33594 24.6044 9.33594 19.097ZM19.3079 15.125C17.1143 15.125 15.3359 16.9033 15.3359 19.097C15.3359 21.2906 17.1143 23.069 19.3079 23.069C21.5016 23.069 23.2799 21.2906 23.2799 19.097C23.2799 16.9033 21.5016 15.125 19.3079 15.125Z" fill="#FF2D1F"/>
<path d="M72.7472 34.3555C71.0904 34.3555 69.7472 35.6987 69.7472 37.3555C69.7472 39.0123 71.0904 40.3555 72.7472 40.3555V34.3555ZM77.9752 37.3555L78.0372 34.3563C78.0164 34.3555 77.996 34.3555 77.9752 34.3555V37.3555ZM77.9752 55.9595V58.9595C77.996 58.9595 78.0164 58.9591 78.0372 58.9587L77.9752 55.9595ZM72.7472 52.9595C71.0904 52.9595 69.7472 54.3027 69.7472 55.9595C69.7472 57.6163 71.0904 58.9595 72.7472 58.9595V52.9595ZM17.3391 40.3555C18.996 40.3555 20.3391 39.0123 20.3391 37.3555C20.3391 35.6987 18.996 34.3555 17.3391 34.3555V40.3555ZM12.1111 37.3555V34.3555C12.0904 34.3555 12.0696 34.3555 12.0489 34.3563L12.1111 37.3555ZM12.1111 55.9595L12.0489 58.9587C12.0696 58.9591 12.0904 58.9595 12.1111 58.9595V55.9595ZM17.3391 58.9595C18.996 58.9595 20.3391 57.6163 20.3391 55.9595C20.3391 54.3027 18.996 52.9595 17.3391 52.9595V58.9595ZM72.7472 40.3555H77.9752V34.3555H72.7472V40.3555ZM77.9128 40.3547C81.3428 40.4259 84.086 43.2267 84.086 46.6575H90.086C90.086 39.9615 84.7316 34.4951 78.0372 34.3563L77.9128 40.3547ZM84.086 46.6575C84.086 50.0883 81.3428 52.8891 77.9128 52.9603L78.0372 58.9587C84.7316 58.8199 90.086 53.3535 90.086 46.6575H84.086ZM77.9752 52.9595H72.7472V58.9595H77.9752V52.9595ZM17.3391 34.3555H12.1111V40.3555H17.3391V34.3555ZM12.0489 34.3563C5.35444 34.4951 0 39.9615 0 46.6575H6C6 43.2267 8.74336 40.4259 12.1733 40.3547L12.0489 34.3563ZM0 46.6575C0 53.3535 5.35444 58.8199 12.0489 58.9587L12.1733 52.9603C8.74336 52.8891 6 50.0883 6 46.6575H0ZM12.1111 58.9595H17.3391V52.9595H12.1111V58.9595Z" fill="#FF2D1F"/>
</svg>
