<svg width="49" height="62" viewBox="0 0 49 62" fill="none" xmlns="http://www.w3.org/2000/svg">
<path fill-rule="evenodd" clip-rule="evenodd" d="M24.5776 6C21.2012 6.00072 18.464 8.73754 18.4629 12.1143C18.4618 15.4912 21.1982 18.23 24.5755 18.232C27.9516 18.234 30.6911 15.4993 30.6949 12.123M24.5789 6C26.2016 6.00108 27.7573 6.64648 28.9043 7.7944C30.0509 8.94208 30.695 10.4984 30.6949 12.1214M12.4629 12.1124C12.465 5.42243 17.8887 0 24.5789 0H24.5802C27.7947 0.00143552 30.8768 1.27967 33.1487 3.5536C35.4209 5.82769 36.696 8.91102 36.6949 12.125L36.6949 12.1266C36.689 18.8168 31.2616 24.2359 24.5719 24.232C17.882 24.2281 12.4608 18.8027 12.4629 12.1124Z" fill="#FF2D1F"/>
<path fill-rule="evenodd" clip-rule="evenodd" d="M15.0922 31.6773C15.1236 31.6763 15.1551 31.6758 15.1865 31.6758H33.9865C34.0179 31.6758 34.0493 31.6763 34.0807 31.6773C42.2681 31.9346 48.7721 38.646 48.7721 46.8378C48.7721 55.0295 42.2681 61.741 34.0807 61.9983C34.0493 61.9993 34.0179 61.9998 33.9865 61.9998H15.1865C15.1551 61.9998 15.1236 61.9993 15.0922 61.9983C6.9046 61.741 0.400391 55.0296 0.400391 46.8378C0.400391 38.6459 6.9046 31.9345 15.0922 31.6773ZM15.2369 37.6758C10.3084 37.8538 6.40039 41.9011 6.40039 46.8378C6.40039 51.7745 10.3084 55.8218 15.2369 55.9998H33.9361C38.8641 55.8218 42.7721 51.7746 42.7721 46.8378C42.7721 41.901 38.8641 37.8538 33.9361 37.6758H15.2369Z" fill="#FF2D1F"/>
</svg>
