<svg width="225" height="49" viewBox="0 0 225 49" fill="none" xmlns="http://www.w3.org/2000/svg">
<path d="M1 28.42V0.579999H19.9065V5.49066H6.20503V10.788H12.6348C12.8899 10.788 13.2471 10.8009 13.7064 10.8267C14.1657 10.8396 14.5739 10.8653 14.9311 10.904C16.513 11.0716 17.8271 11.5678 18.8732 12.3927C19.932 13.2047 20.723 14.2422 21.2461 15.5053C21.7819 16.7556 22.0498 18.1218 22.0498 19.604C22.0498 21.0862 21.7882 22.4589 21.2652 23.722C20.7421 24.9722 19.9512 26.0098 18.8923 26.8347C17.8462 27.6467 16.5258 28.1364 14.9311 28.304C14.5739 28.3427 14.1657 28.3749 13.7064 28.4007C13.2599 28.4136 12.9027 28.42 12.6348 28.42H1ZM6.20503 23.5093H12.4051C12.6731 23.5093 12.9665 23.4964 13.2854 23.4707C13.6043 23.4449 13.8978 23.4062 14.1657 23.3547C15.2245 23.1227 15.9262 22.6264 16.2707 21.866C16.6279 21.1056 16.8065 20.3516 16.8065 19.604C16.8065 18.8436 16.6279 18.0896 16.2707 17.342C15.9262 16.5816 15.2245 16.0853 14.1657 15.8533C13.8978 15.7889 13.6043 15.7502 13.2854 15.7373C12.9665 15.7116 12.6731 15.6987 12.4051 15.6987H6.20503V23.5093Z" fill="black"/>
<path d="M46.5207 28.42H41.2391V9.86L29.2599 28.42H23.9783V0.579999H29.2599V19.14L41.2391 0.579999H46.5207V28.42Z" fill="black"/>
<path d="M48.0331 28.42L56.453 0.579999H64.2223L72.6422 28.42H67.284L59.7827 3.86667H60.7778L53.3912 28.42H48.0331ZM53.085 22.62V17.7093H67.6285V22.62H53.085Z" fill="black"/>
<path d="M85.237 29C82.4814 29 80.1022 28.3942 78.0993 27.1827C76.1091 25.9711 74.5718 24.2762 73.4874 22.098C72.4158 19.9198 71.88 17.3871 71.88 14.5C71.88 11.6129 72.4158 9.08022 73.4874 6.902C74.5718 4.72378 76.1091 3.02889 78.0993 1.81733C80.1022 0.605778 82.4814 0 85.237 0C88.4009 0 91.0545 0.792666 93.1977 2.378C95.3537 3.96333 96.8718 6.10933 97.7521 8.816L92.5088 10.2853C91.9985 8.59689 91.1374 7.28867 89.9254 6.36067C88.7135 5.41978 87.1507 4.94933 85.237 4.94933C83.4893 4.94933 82.0286 5.34244 80.8549 6.12867C79.6939 6.91489 78.8201 8.02333 78.2332 9.454C77.6464 10.8847 77.353 12.5667 77.353 14.5C77.353 16.4333 77.6464 18.1153 78.2332 19.546C78.8201 20.9767 79.6939 22.0851 80.8549 22.8713C82.0286 23.6576 83.4893 24.0507 85.237 24.0507C87.1507 24.0507 88.7135 23.5802 89.9254 22.6393C91.1374 21.6984 91.9985 20.3902 92.5088 18.7147L97.7521 20.184C96.8718 22.8907 95.3537 25.0367 93.1977 26.622C91.0545 28.2073 88.4009 29 85.237 29Z" fill="black"/>
<path d="M97.3909 28.42L105.811 0.579999H113.58L122 28.42H116.642L109.141 3.86667H110.136L102.749 28.42H97.3909ZM102.443 22.62V17.7093H116.986V22.62H102.443Z" fill="black"/>
<path d="M222.158 45.0014V42.5934H220.94C220.781 42.5934 220.564 42.5911 220.289 42.5864C220.018 42.5771 219.764 42.5514 219.526 42.5094C218.924 42.4021 218.429 42.1407 218.042 41.7254C217.659 41.3101 217.468 40.7454 217.468 40.0314C217.468 39.3361 217.652 38.7761 218.021 38.3514C218.39 37.9267 218.882 37.6561 219.498 37.5394C219.75 37.4881 220.009 37.4601 220.275 37.4554C220.546 37.4461 220.767 37.4414 220.94 37.4414H224.062V45.0014H222.158ZM217.286 45.0014L218.994 42.2014H220.954L219.274 45.0014H217.286ZM220.73 41.1234H222.158V38.9114H220.73C220.646 38.9114 220.553 38.9161 220.45 38.9254C220.352 38.9347 220.249 38.9534 220.142 38.9814C220.011 39.0187 219.89 39.0887 219.778 39.1914C219.666 39.2894 219.575 39.4107 219.505 39.5554C219.435 39.6954 219.4 39.8494 219.4 40.0174C219.4 40.2834 219.479 40.5097 219.638 40.6964C219.797 40.8784 219.974 40.9974 220.17 41.0534C220.268 41.0814 220.366 41.1001 220.464 41.1094C220.567 41.1187 220.655 41.1234 220.73 41.1234Z" fill="black"/>
<path d="M216.445 37.4414V45.0014H214.625V40.3814L211.209 45.0014H209.697V37.4414H211.517V41.9074L214.947 37.4414H216.445Z" fill="black"/>
<path d="M207.387 46.6814V45.0014H201.101V37.4414H203.005V43.2234H205.945V37.4414H207.849V43.3214H209.291V46.6814H207.387Z" fill="black"/>
<path d="M196.787 45.2105C196.036 45.2105 195.408 45.0355 194.904 44.6855C194.4 44.3355 194.02 43.8595 193.763 43.2575C193.511 42.6555 193.385 41.9765 193.385 41.2205C193.385 40.4645 193.511 39.7855 193.763 39.1835C194.015 38.5815 194.386 38.1055 194.876 37.7555C195.366 37.4055 195.971 37.2305 196.689 37.2305C197.413 37.2305 198.043 37.4031 198.579 37.7485C199.116 38.0938 199.531 38.5675 199.825 39.1695C200.124 39.7668 200.273 40.4505 200.273 41.2205C200.273 41.9765 200.126 42.6555 199.832 43.2575C199.543 43.8595 199.137 44.3355 198.614 44.6855C198.092 45.0355 197.483 45.2105 196.787 45.2105ZM193.063 48.3605V37.4405H194.743V42.6205H194.981V48.3605H193.063ZM196.479 43.5165C196.89 43.5165 197.226 43.4138 197.487 43.2085C197.749 43.0031 197.942 42.7278 198.068 42.3825C198.194 42.0325 198.257 41.6451 198.257 41.2205C198.257 40.8005 198.192 40.4178 198.061 40.0725C197.931 39.7225 197.728 39.4448 197.452 39.2395C197.182 39.0295 196.834 38.9245 196.409 38.9245C196.013 38.9245 195.691 39.0201 195.443 39.2115C195.201 39.4028 195.023 39.6711 194.911 40.0165C194.799 40.3618 194.743 40.7631 194.743 41.2205C194.743 41.6778 194.799 42.0791 194.911 42.4245C195.023 42.7698 195.205 43.0381 195.457 43.2295C195.714 43.4208 196.055 43.5165 196.479 43.5165Z" fill="black"/>
<path d="M188.774 45.2105C187.999 45.2105 187.316 45.0448 186.723 44.7135C186.135 44.3775 185.673 43.9178 185.337 43.3345C185.006 42.7465 184.84 42.0745 184.84 41.3185C184.84 40.4925 185.003 39.7738 185.33 39.1625C185.657 38.5511 186.107 38.0775 186.681 37.7415C187.255 37.4008 187.915 37.2305 188.662 37.2305C189.455 37.2305 190.13 37.4171 190.685 37.7905C191.24 38.1638 191.651 38.6888 191.917 39.3655C192.183 40.0421 192.276 40.8378 192.197 41.7525H190.314V41.0525C190.314 40.2825 190.19 39.7295 189.943 39.3935C189.7 39.0528 189.301 38.8825 188.746 38.8825C188.097 38.8825 187.619 39.0808 187.311 39.4775C187.008 39.8695 186.856 40.4505 186.856 41.2205C186.856 41.9251 187.008 42.4711 187.311 42.8585C187.619 43.2411 188.069 43.4325 188.662 43.4325C189.035 43.4325 189.355 43.3508 189.621 43.1875C189.887 43.0241 190.09 42.7885 190.23 42.4805L192.134 43.0265C191.849 43.7171 191.399 44.2538 190.783 44.6365C190.172 45.0191 189.502 45.2105 188.774 45.2105ZM186.268 41.7525V40.3385H191.28V41.7525H186.268Z" fill="black"/>
<path d="M175.651 45.0014V37.4414H177.191L179.823 42.3414L182.455 37.4414H183.995V45.0014H182.175V41.2354L180.159 45.0014H179.487L177.471 41.2354V45.0014H175.651Z" fill="black"/>
<path d="M166.057 45.0014V37.4414H167.597L170.229 42.3414L172.861 37.4414H174.401V45.0014H172.581V41.2354L170.565 45.0014H169.893L167.877 41.2354V45.0014H166.057Z" fill="black"/>
<path d="M161.395 45.2105C160.635 45.2105 159.967 45.0401 159.393 44.6995C158.819 44.3588 158.371 43.8898 158.049 43.2925C157.732 42.6905 157.573 41.9998 157.573 41.2205C157.573 40.4318 157.737 39.7388 158.063 39.1415C158.39 38.5395 158.84 38.0705 159.414 37.7345C159.988 37.3985 160.649 37.2305 161.395 37.2305C162.156 37.2305 162.823 37.4008 163.397 37.7415C163.976 38.0821 164.426 38.5535 164.748 39.1555C165.07 39.7528 165.231 40.4411 165.231 41.2205C165.231 42.0045 165.068 42.6975 164.741 43.2995C164.419 43.8968 163.969 44.3658 163.39 44.7065C162.816 45.0425 162.151 45.2105 161.395 45.2105ZM161.395 43.4325C162.007 43.4325 162.462 43.2271 162.76 42.8165C163.064 42.4011 163.215 41.8691 163.215 41.2205C163.215 40.5485 163.061 40.0118 162.753 39.6105C162.45 39.2091 161.997 39.0085 161.395 39.0085C160.98 39.0085 160.639 39.1018 160.373 39.2885C160.107 39.4751 159.909 39.7341 159.778 40.0655C159.652 40.3968 159.589 40.7818 159.589 41.2205C159.589 41.8971 159.741 42.4361 160.044 42.8375C160.352 43.2341 160.803 43.4325 161.395 43.4325Z" fill="black"/>
<path d="M151.091 45.0014L151.105 37.4414H153.037V41.0814L155.599 37.4414H157.951L155.221 41.2214L158.133 45.0014H155.655L153.037 41.3614V45.0014H151.091Z" fill="black"/>
<path d="M145.842 45.0014V42.5934H144.624C144.465 42.5934 144.248 42.5911 143.973 42.5864C143.702 42.5771 143.448 42.5514 143.21 42.5094C142.608 42.4021 142.113 42.1407 141.726 41.7254C141.343 41.3101 141.152 40.7454 141.152 40.0314C141.152 39.3361 141.336 38.7761 141.705 38.3514C142.073 37.9267 142.566 37.6561 143.182 37.5394C143.434 37.4881 143.693 37.4601 143.959 37.4554C144.229 37.4461 144.451 37.4414 144.624 37.4414H147.746V45.0014H145.842ZM140.97 45.0014L142.678 42.2014H144.638L142.958 45.0014H140.97ZM144.414 41.1234H145.842V38.9114H144.414C144.33 38.9114 144.236 38.9161 144.134 38.9254C144.036 38.9347 143.933 38.9534 143.826 38.9814C143.695 39.0187 143.574 39.0887 143.462 39.1914C143.35 39.2894 143.259 39.4107 143.189 39.5554C143.119 39.6954 143.084 39.8494 143.084 40.0174C143.084 40.2834 143.163 40.5097 143.322 40.6964C143.48 40.8784 143.658 40.9974 143.854 41.0534C143.952 41.0814 144.05 41.1001 144.148 41.1094C144.25 41.1187 144.339 41.1234 144.414 41.1234Z" fill="black"/>
<path d="M136.028 45.2105C135.486 45.2105 135.027 45.1078 134.649 44.9025C134.275 44.6925 133.991 44.4148 133.795 44.0695C133.603 43.7195 133.508 43.3345 133.508 42.9145C133.508 42.5645 133.561 42.2448 133.669 41.9555C133.776 41.6661 133.949 41.4118 134.187 41.1925C134.429 40.9685 134.754 40.7818 135.16 40.6325C135.44 40.5298 135.773 40.4388 136.161 40.3595C136.548 40.2801 136.987 40.2055 137.477 40.1355C137.967 40.0608 138.506 39.9791 139.094 39.8905L138.408 40.2685C138.408 39.8205 138.3 39.4915 138.086 39.2815C137.871 39.0715 137.512 38.9665 137.008 38.9665C136.728 38.9665 136.436 39.0341 136.133 39.1695C135.829 39.3048 135.617 39.5451 135.496 39.8905L133.774 39.3445C133.965 38.7191 134.324 38.2105 134.852 37.8185C135.379 37.4265 136.098 37.2305 137.008 37.2305C137.675 37.2305 138.268 37.3331 138.786 37.5385C139.304 37.7438 139.696 38.0985 139.962 38.6025C140.111 38.8825 140.2 39.1625 140.228 39.4425C140.256 39.7225 140.27 40.0351 140.27 40.3805V45.0005H138.604V43.4465L138.842 43.7685C138.473 44.2771 138.074 44.6458 137.645 44.8745C137.22 45.0985 136.681 45.2105 136.028 45.2105ZM136.434 43.7125C136.784 43.7125 137.078 43.6518 137.316 43.5305C137.558 43.4045 137.75 43.2621 137.89 43.1035C138.034 42.9448 138.132 42.8118 138.184 42.7045C138.282 42.4991 138.338 42.2611 138.352 41.9905C138.37 41.7151 138.38 41.4865 138.38 41.3045L138.94 41.4445C138.375 41.5378 137.918 41.6171 137.568 41.6825C137.218 41.7431 136.935 41.7991 136.721 41.8505C136.506 41.9018 136.317 41.9578 136.154 42.0185C135.967 42.0931 135.815 42.1748 135.699 42.2635C135.587 42.3475 135.503 42.4408 135.447 42.5435C135.395 42.6461 135.37 42.7605 135.37 42.8865C135.37 43.0591 135.412 43.2085 135.496 43.3345C135.584 43.4558 135.708 43.5491 135.867 43.6145C136.025 43.6798 136.214 43.7125 136.434 43.7125Z" fill="black"/>
<path d="M125.755 45.0014V37.4414H127.659V40.3254H130.767V37.4414H132.671V45.0014H130.767V42.1034H127.659V45.0014H125.755Z" fill="black"/>
<path d="M117.595 45.0014V37.4414H119.499V40.3254H122.607V37.4414H124.511V45.0014H122.607V42.1034H119.499V45.0014H117.595Z" fill="black"/>
<path d="M112.933 45.2105C112.173 45.2105 111.505 45.0401 110.931 44.6995C110.357 44.3588 109.909 43.8898 109.587 43.2925C109.27 42.6905 109.111 41.9998 109.111 41.2205C109.111 40.4318 109.275 39.7388 109.601 39.1415C109.928 38.5395 110.378 38.0705 110.952 37.7345C111.526 37.3985 112.187 37.2305 112.933 37.2305C113.694 37.2305 114.361 37.4008 114.935 37.7415C115.514 38.0821 115.964 38.5535 116.286 39.1555C116.608 39.7528 116.769 40.4411 116.769 41.2205C116.769 42.0045 116.606 42.6975 116.279 43.2995C115.957 43.8968 115.507 44.3658 114.928 44.7065C114.354 45.0425 113.689 45.2105 112.933 45.2105ZM112.933 43.4325C113.545 43.4325 114 43.2271 114.298 42.8165C114.602 42.4011 114.753 41.8691 114.753 41.2205C114.753 40.5485 114.599 40.0118 114.291 39.6105C113.988 39.2091 113.535 39.0085 112.933 39.0085C112.518 39.0085 112.177 39.1018 111.911 39.2885C111.645 39.4751 111.447 39.7341 111.316 40.0655C111.19 40.3968 111.127 40.7818 111.127 41.2205C111.127 41.8971 111.279 42.4361 111.582 42.8375C111.89 43.2341 112.341 43.4325 112.933 43.4325Z" fill="black"/>
<path d="M105.205 45.2105C104.454 45.2105 103.826 45.0355 103.322 44.6855C102.818 44.3355 102.438 43.8595 102.181 43.2575C101.929 42.6555 101.803 41.9765 101.803 41.2205C101.803 40.4645 101.929 39.7855 102.181 39.1835C102.433 38.5815 102.804 38.1055 103.294 37.7555C103.784 37.4055 104.389 37.2305 105.107 37.2305C105.831 37.2305 106.461 37.4031 106.997 37.7485C107.534 38.0938 107.949 38.5675 108.243 39.1695C108.542 39.7668 108.691 40.4505 108.691 41.2205C108.691 41.9765 108.544 42.6555 108.25 43.2575C107.961 43.8595 107.555 44.3355 107.032 44.6855C106.51 45.0355 105.901 45.2105 105.205 45.2105ZM101.481 48.3605V37.4405H103.161V42.6205H103.399V48.3605H101.481ZM104.897 43.5165C105.308 43.5165 105.644 43.4138 105.905 43.2085C106.167 43.0031 106.36 42.7278 106.486 42.3825C106.612 42.0325 106.675 41.6451 106.675 41.2205C106.675 40.8005 106.61 40.4178 106.479 40.0725C106.349 39.7225 106.146 39.4448 105.87 39.2395C105.6 39.0295 105.252 38.9245 104.827 38.9245C104.431 38.9245 104.109 39.0201 103.861 39.2115C103.619 39.4028 103.441 39.6711 103.329 40.0165C103.217 40.3618 103.161 40.7631 103.161 41.2205C103.161 41.6778 103.217 42.0791 103.329 42.4245C103.441 42.7698 103.623 43.0381 103.875 43.2295C104.132 43.4208 104.473 43.5165 104.897 43.5165Z" fill="black"/>
<path d="M96.4829 45.0014V39.1214H94.0049V37.4414H100.865V39.1214H98.3869V45.0014H96.4829Z" fill="black"/>
<path d="M87.5967 45.0014L87.6107 37.4414H89.5427V41.0814L92.1047 37.4414H94.4567L91.7267 41.2214L94.6387 45.0014H92.1607L89.5427 41.3614V45.0014H87.5967Z" fill="black"/>
<path d="M83.3071 45.2105C82.5324 45.2105 81.8487 45.0448 81.2561 44.7135C80.6681 44.3775 80.206 43.9178 79.87 43.3345C79.5387 42.7465 79.373 42.0745 79.373 41.3185C79.373 40.4925 79.5364 39.7738 79.8631 39.1625C80.1897 38.5511 80.6401 38.0775 81.2141 37.7415C81.7881 37.4008 82.4484 37.2305 83.1951 37.2305C83.9884 37.2305 84.6627 37.4171 85.218 37.7905C85.7734 38.1638 86.1841 38.6888 86.4501 39.3655C86.716 40.0421 86.8094 40.8378 86.73 41.7525H84.847V41.0525C84.847 40.2825 84.7234 39.7295 84.4761 39.3935C84.2334 39.0528 83.8344 38.8825 83.2791 38.8825C82.6304 38.8825 82.152 39.0808 81.844 39.4775C81.5407 39.8695 81.389 40.4505 81.389 41.2205C81.389 41.9251 81.5407 42.4711 81.844 42.8585C82.152 43.2411 82.6024 43.4325 83.1951 43.4325C83.5684 43.4325 83.8881 43.3508 84.1541 43.1875C84.4201 43.0241 84.623 42.7885 84.763 42.4805L86.6671 43.0265C86.3824 43.7171 85.932 44.2538 85.316 44.6365C84.7047 45.0191 84.0351 45.2105 83.3071 45.2105ZM80.801 41.7525V40.3385H85.813V41.7525H80.801Z" fill="black"/>
<path d="M71.1797 45.0014V43.4194C71.455 43.4707 71.6674 43.4684 71.8167 43.4124C71.966 43.3517 72.078 43.2351 72.1527 43.0624C72.232 42.8851 72.2997 42.6447 72.3557 42.3414C72.4304 41.9401 72.4957 41.4711 72.5517 40.9344C72.6124 40.3977 72.6637 39.8307 72.7057 39.2334C72.7477 38.6314 72.785 38.0341 72.8177 37.4414H78.5297V45.0014H76.6257V39.2194H74.4837C74.465 39.4621 74.4394 39.7514 74.4067 40.0874C74.3787 40.4234 74.346 40.7734 74.3087 41.1374C74.276 41.4967 74.2387 41.8421 74.1967 42.1734C74.1547 42.5001 74.1104 42.7801 74.0637 43.0134C73.9517 43.6061 73.786 44.0727 73.5667 44.4134C73.3474 44.7541 73.0464 44.9711 72.6637 45.0644C72.281 45.1624 71.7864 45.1414 71.1797 45.0014Z" fill="black"/>
<path d="M67.2874 45.2105C66.4148 45.2105 65.6797 44.9935 65.0824 44.5595C64.4851 44.1255 64.0768 43.5071 63.8574 42.7045L65.8034 42.2985C65.9154 42.6625 66.0834 42.9425 66.3074 43.1385C66.5361 43.3345 66.8628 43.4325 67.2874 43.4325C67.7494 43.4325 68.1204 43.2995 68.4004 43.0335C68.6804 42.7628 68.8648 42.4011 68.9534 41.9485H66.7274V40.4785H68.9534C68.8694 40.0631 68.6944 39.7155 68.4284 39.4355C68.1624 39.1508 67.8008 39.0085 67.3434 39.0085C66.9654 39.0085 66.6364 39.1158 66.3564 39.3305C66.0811 39.5405 65.8828 39.8485 65.7614 40.2545L63.8574 39.7505C64.0254 38.9711 64.4128 38.3575 65.0194 37.9095C65.6261 37.4568 66.3728 37.2305 67.2594 37.2305C68.0294 37.2305 68.6968 37.4031 69.2614 37.7485C69.8308 38.0938 70.2694 38.5698 70.5774 39.1765C70.8854 39.7785 71.0394 40.4645 71.0394 41.2345C71.0394 41.9858 70.8901 42.6625 70.5914 43.2645C70.2928 43.8618 69.8634 44.3355 69.3034 44.6855C68.7434 45.0355 68.0714 45.2105 67.2874 45.2105Z" fill="black"/>
<path d="M54.8662 45.0014V37.4414H56.7702V39.8494H57.9882C58.1982 39.8494 58.4432 39.8541 58.7232 39.8634C59.0032 39.8727 59.2342 39.8961 59.4162 39.9334C59.8595 40.0314 60.2329 40.1877 60.5362 40.4024C60.8395 40.6171 61.0682 40.8947 61.2222 41.2354C61.3809 41.5714 61.4602 41.9727 61.4602 42.4394C61.4602 43.1114 61.2852 43.6527 60.9352 44.0634C60.5899 44.4694 60.0882 44.7494 59.4302 44.9034C59.2482 44.9454 59.0149 44.9734 58.7302 44.9874C58.4455 44.9967 58.1982 45.0014 57.9882 45.0014H54.8662ZM56.7702 43.5314H58.1982C58.2822 43.5314 58.3755 43.5267 58.4782 43.5174C58.5809 43.5081 58.6835 43.4894 58.7862 43.4614C58.9822 43.4054 59.1549 43.2817 59.3042 43.0904C59.4535 42.8991 59.5282 42.6821 59.5282 42.4394C59.5282 42.1734 59.4512 41.9471 59.2972 41.7604C59.1432 41.5691 58.9635 41.4454 58.7582 41.3894C58.6602 41.3614 58.5622 41.3427 58.4642 41.3334C58.3662 41.3241 58.2775 41.3194 58.1982 41.3194H56.7702V43.5314Z" fill="black"/>
<path d="M49.8676 45.0014V39.1214H47.3896V37.4414H54.2496V39.1214H51.7717V45.0014H49.8676Z" fill="black"/>
<path d="M43.8887 45.2105C43.1047 45.2105 42.4327 45.0355 41.8727 44.6855C41.3127 44.3355 40.8834 43.8595 40.5847 43.2575C40.2861 42.6555 40.1367 41.9765 40.1367 41.2205C40.1367 40.4551 40.2907 39.7715 40.5987 39.1695C40.9114 38.5675 41.3501 38.0938 41.9147 37.7485C42.4794 37.4031 43.1467 37.2305 43.9167 37.2305C44.8081 37.2305 45.5547 37.4568 46.1567 37.9095C46.7634 38.3575 47.1507 38.9711 47.3187 39.7505L45.4147 40.2545C45.3027 39.8625 45.1067 39.5568 44.8267 39.3375C44.5514 39.1181 44.2387 39.0085 43.8887 39.0085C43.4874 39.0085 43.1584 39.1065 42.9017 39.3025C42.6451 39.4938 42.4561 39.7575 42.3347 40.0935C42.2134 40.4248 42.1527 40.8005 42.1527 41.2205C42.1527 41.8785 42.2974 42.4128 42.5867 42.8235C42.8807 43.2295 43.3147 43.4325 43.8887 43.4325C44.3181 43.4325 44.6447 43.3345 44.8687 43.1385C45.0927 42.9425 45.2607 42.6625 45.3727 42.2985L47.3187 42.7045C47.1041 43.5071 46.6981 44.1255 46.1007 44.5595C45.5034 44.9935 44.7661 45.2105 43.8887 45.2105Z" fill="black"/>
<path d="M36.2533 45.2105C35.4787 45.2105 34.795 45.0448 34.2023 44.7135C33.6143 44.3775 33.1523 43.9178 32.8163 43.3345C32.485 42.7465 32.3193 42.0745 32.3193 41.3185C32.3193 40.4925 32.4827 39.7738 32.8093 39.1625C33.136 38.5511 33.5863 38.0775 34.1603 37.7415C34.7343 37.4008 35.3947 37.2305 36.1413 37.2305C36.9347 37.2305 37.609 37.4171 38.1643 37.7905C38.7197 38.1638 39.1303 38.6888 39.3963 39.3655C39.6623 40.0421 39.7557 40.8378 39.6763 41.7525H37.7933V41.0525C37.7933 40.2825 37.6697 39.7295 37.4223 39.3935C37.1797 39.0528 36.7807 38.8825 36.2253 38.8825C35.5767 38.8825 35.0983 39.0808 34.7903 39.4775C34.487 39.8695 34.3353 40.4505 34.3353 41.2205C34.3353 41.9251 34.487 42.4711 34.7903 42.8585C35.0983 43.2411 35.5487 43.4325 36.1413 43.4325C36.5147 43.4325 36.8343 43.3508 37.1003 43.1875C37.3663 43.0241 37.5693 42.7885 37.7093 42.4805L39.6133 43.0265C39.3287 43.7171 38.8783 44.2538 38.2623 44.6365C37.651 45.0191 36.9813 45.2105 36.2533 45.2105ZM33.7473 41.7525V40.3385H38.7593V41.7525H33.7473Z" fill="black"/>
<path d="M29.3759 37.4414V45.0014H27.5559V40.3814L24.1399 45.0014H22.6279V37.4414H24.4479V41.9074L27.8779 37.4414H29.3759Z" fill="black"/>
<path d="M10.5605 45.0014V37.4414H12.4645V39.8494H13.1505C13.3605 39.8494 13.6055 39.8541 13.8855 39.8634C14.1655 39.8727 14.3965 39.8961 14.5785 39.9334C15.0219 40.0314 15.3952 40.1877 15.6985 40.4024C16.0019 40.6171 16.2305 40.8947 16.3845 41.2354C16.5432 41.5714 16.6225 41.9727 16.6225 42.4394C16.6225 43.1114 16.4475 43.6527 16.0975 44.0634C15.7522 44.4694 15.2505 44.7494 14.5925 44.9034C14.4105 44.9454 14.1772 44.9734 13.8925 44.9874C13.6079 44.9967 13.3605 45.0014 13.1505 45.0014H10.5605ZM12.4645 43.5314H13.3605C13.4445 43.5314 13.5379 43.5267 13.6405 43.5174C13.7432 43.5081 13.8459 43.4894 13.9485 43.4614C14.1445 43.4054 14.3172 43.2817 14.4665 43.0904C14.6159 42.8991 14.6905 42.6821 14.6905 42.4394C14.6905 42.1734 14.6135 41.9471 14.4595 41.7604C14.3055 41.5691 14.1259 41.4454 13.9205 41.3894C13.8225 41.3614 13.7245 41.3427 13.6265 41.3334C13.5285 41.3241 13.4399 41.3194 13.3605 41.3194H12.4645V43.5314ZM17.3785 45.0014V37.4414H19.2825V45.0014H17.3785Z" fill="black"/>
<path d="M0.96582 45.0014V37.4414H2.50582L5.13782 42.3414L7.76982 37.4414H9.30982V45.0014H7.48982V41.2354L5.47382 45.0014H4.80182L2.78582 41.2354V45.0014H0.96582Z" fill="black"/>
</svg>
