<svg width="35" height="36" viewBox="0 0 35 36" fill="none" xmlns="http://www.w3.org/2000/svg">
<path fill-rule="evenodd" clip-rule="evenodd" d="M10.2852 0.108C12.1514 0.0196363 12.7464 0 17.5 0C22.2536 0 22.8486 0.0212727 24.7132 0.108C26.5777 0.194727 27.8505 0.500727 28.9641 0.944182C30.1302 1.39745 31.1882 2.106 32.0632 3.02236C32.9541 3.92073 33.6414 5.00727 34.0805 6.20836C34.5132 7.35382 34.8091 8.66291 34.895 10.5775C34.9809 12.5002 35 13.1122 35 18C35 22.8895 34.9793 23.5015 34.895 25.4209C34.8107 27.3355 34.5132 28.6445 34.0805 29.79C33.6413 30.9912 32.9529 32.0796 32.0632 32.9793C31.1882 33.8956 30.1302 34.6025 28.9641 35.0542C27.8505 35.4993 26.5777 35.8036 24.7164 35.892C22.8486 35.9804 22.2536 36 17.5 36C12.7464 36 12.1514 35.9787 10.2852 35.892C8.42386 35.8053 7.15114 35.4993 6.0375 35.0542C4.86965 34.6025 3.81153 33.8944 2.93682 32.9793C2.04651 32.0804 1.35755 30.9925 0.917955 29.7916C0.486818 28.6462 0.190909 27.3371 0.105 25.4225C0.0190909 23.4998 0 22.8878 0 18C0 13.1105 0.0206818 12.4985 0.105 10.5807C0.189318 8.66291 0.486818 7.35382 0.917955 6.20836C1.3582 5.00741 2.04769 3.9196 2.93841 3.02073C3.81188 2.10518 4.86893 1.39654 6.03591 0.944182C7.14954 0.500727 8.42227 0.196364 10.2836 0.108H10.2852ZM24.5716 3.348C22.7261 3.26127 22.1725 3.24327 17.5 3.24327C12.8275 3.24327 12.2739 3.26127 10.4284 3.348C8.72136 3.42818 7.79545 3.72109 7.17818 3.96818C6.36205 4.29545 5.77818 4.68327 5.16568 5.31327C4.58507 5.89427 4.13824 6.60155 3.85795 7.38327C3.61773 8.01818 3.33295 8.97055 3.255 10.7264C3.17068 12.6245 3.15318 13.194 3.15318 18C3.15318 22.806 3.17068 23.3755 3.255 25.2736C3.33295 27.0295 3.61773 27.9818 3.85795 28.6167C4.13795 29.3973 4.585 30.1058 5.16568 30.6867C5.73045 31.284 6.41932 31.7438 7.17818 32.0318C7.79545 32.2789 8.72136 32.5718 10.4284 32.652C12.2739 32.7387 12.8259 32.7567 17.5 32.7567C22.1741 32.7567 22.7261 32.7387 24.5716 32.652C26.2786 32.5718 27.2045 32.2789 27.8218 32.0318C28.638 31.7045 29.2218 31.3167 29.8343 30.6867C30.415 30.1058 30.862 29.3973 31.142 28.6167C31.3823 27.9818 31.667 27.0295 31.745 25.2736C31.8293 23.3755 31.8468 22.806 31.8468 18C31.8468 13.194 31.8293 12.6245 31.745 10.7264C31.667 8.97055 31.3823 8.01818 31.142 7.38327C30.8239 6.54382 30.4468 5.94327 29.8343 5.31327C29.2694 4.71612 28.5818 4.25653 27.8218 3.96818C27.2045 3.72109 26.2786 3.42818 24.5716 3.348ZM15.2648 23.5489C16.5131 24.0834 17.9031 24.1555 19.1974 23.753C20.4917 23.3505 21.6099 22.4982 22.3612 21.3419C23.1125 20.1855 23.4501 18.7967 23.3164 17.4127C23.1828 16.0287 22.5861 14.7354 21.6284 13.7536C21.0179 13.1261 20.2797 12.6455 19.4669 12.3466C18.6541 12.0477 17.787 11.9379 16.9281 12.025C16.0691 12.1122 15.2396 12.3941 14.4992 12.8506C13.7589 13.307 13.1262 13.9267 12.6466 14.6648C12.1671 15.403 11.8526 16.2414 11.7258 17.1196C11.5991 17.9978 11.6632 18.8939 11.9136 19.7436C12.164 20.5932 12.5944 21.3752 13.1739 22.0332C13.7533 22.6912 14.4674 23.2088 15.2648 23.5489ZM11.1395 11.4578C11.9748 10.5987 12.9664 9.91719 14.0577 9.45223C15.1491 8.98727 16.3188 8.74796 17.5 8.74796C18.6812 8.74796 19.8509 8.98727 20.9423 9.45223C22.0336 9.91719 23.0252 10.5987 23.8605 11.4578C24.6957 12.3169 25.3583 13.3369 25.8103 14.4594C26.2624 15.5819 26.495 16.785 26.495 18C26.495 19.215 26.2624 20.4181 25.8103 21.5406C25.3583 22.6631 24.6957 23.683 23.8605 24.5422C22.1736 26.2773 19.8856 27.252 17.5 27.252C15.1144 27.252 12.8264 26.2773 11.1395 24.5422C9.45265 22.8071 8.50496 20.4538 8.50496 18C8.50496 15.5462 9.45265 13.1929 11.1395 11.4578ZM28.49 10.1258C28.697 9.92499 28.8627 9.68348 28.9773 9.41559C29.0919 9.14771 29.1531 8.85889 29.1573 8.56625C29.1614 8.2736 29.1084 7.98308 29.0014 7.71187C28.8945 7.44066 28.7357 7.19429 28.5345 6.98734C28.3333 6.78038 28.0937 6.61706 27.8301 6.50703C27.5664 6.397 27.2839 6.34251 26.9994 6.34677C26.7149 6.35104 26.4341 6.41398 26.1737 6.53187C25.9132 6.64975 25.6784 6.82019 25.4832 7.03309C25.1034 7.44714 24.8955 7.99711 24.9036 8.56625C24.9117 9.13539 25.1351 9.67889 25.5264 10.0814C25.9177 10.4839 26.4461 10.7136 26.9994 10.7219C27.5528 10.7302 28.0875 10.5164 28.49 10.1258Z" fill="#FF2D1F"/>
</svg>
