<svg width="62" height="80" viewBox="0 0 62 80" fill="none" xmlns="http://www.w3.org/2000/svg">
<path d="M60.1953 10.4409C58.5067 7.55031 55.4391 4.92281 50.7198 3.04984C45.993 1.17422 39.5948 0.0142188 31.0092 0.0117188C19.5673 0.0192188 11.9942 2.06906 7.12251 5.15625C4.69141 6.7 2.94876 8.51625 1.82298 10.4409C0.697195 12.3631 0.20079 14.3786 0.203133 16.2602V56.7714C0.203133 63.2802 5.47798 68.5598 11.9941 68.5623H15.4622L7.30923 80.0117H13.8255L15.7819 76.842H46.2364L48.1928 80.0117H54.7114L46.5583 68.5623H50.0266C56.5427 68.5598 61.815 63.2802 61.8175 56.7714V16.2602C61.8175 14.3786 61.3209 12.3631 60.1953 10.4409ZM17.6697 73.7844L19.668 70.5497H42.3527L44.3511 73.7844H17.6697ZM58.042 56.7714C58.0397 58.9886 57.1473 60.982 55.6947 62.4383C54.2395 63.8922 52.2463 64.7856 50.0266 64.7869H11.9942C9.77469 64.7856 7.78126 63.8922 6.3261 62.4383C4.87095 60.982 3.9786 58.9886 3.9786 56.7714V16.2602C3.9786 15.0325 4.29329 13.7003 5.08235 12.3472C6.26704 10.3255 8.56048 8.20547 12.6947 6.55984C16.8216 4.91672 22.7652 3.78594 31.0092 3.78859C42.0086 3.78234 48.8958 5.80297 52.873 8.34203C54.8664 9.61141 56.1445 10.9955 56.9361 12.3473C57.7275 13.7005 58.0398 15.0327 58.0422 16.2603V56.7714H58.042Z" fill="#FF2D1F"/>
<path d="M20.5258 15.8763H41.4875C42.8811 15.8763 44.0117 14.748 44.0117 13.352C44.0117 11.9596 42.8811 10.8301 41.4875 10.8301H20.5258C19.1322 10.8301 18.0039 11.9596 18.0039 13.352C18.0039 14.748 19.1322 15.8763 20.5258 15.8763Z" fill="#FF2D1F"/>
<path d="M16.0095 58.0523C17.7472 58.0523 19.1558 56.6436 19.1558 54.906C19.1558 53.1684 17.7472 51.7598 16.0095 51.7598C14.2719 51.7598 12.8633 53.1684 12.8633 54.906C12.8633 56.6436 14.2719 58.0523 16.0095 58.0523Z" fill="#FF2D1F"/>
<path d="M45.9978 58.0523C47.7354 58.0523 49.1441 56.6436 49.1441 54.906C49.1441 53.1684 47.7354 51.7598 45.9978 51.7598C44.2602 51.7598 42.8516 53.1684 42.8516 54.906C42.8516 56.6436 44.2602 58.0523 45.9978 58.0523Z" fill="#FF2D1F"/>
<path d="M28.432 24.0195H11.6367V39.3819H28.432V24.0195Z" fill="#FF2D1F"/>
<path d="M50.3809 24.0195H32.8359V39.3819H50.3809V24.0195Z" fill="#FF2D1F"/>
</svg>
