<svg width="80" height="64" viewBox="0 0 80 64" fill="none" xmlns="http://www.w3.org/2000/svg">
<path d="M78.1872 21.3653C76.7821 19.7397 74.7366 18.8039 72.5791 18.8039C71.8362 18.8039 71.0994 18.9142 70.3905 19.1333L62.6157 21.3777L62.541 21.3978L62.4663 21.4212L62.0808 21.4834C61.888 21.4834 61.6955 21.4383 61.5243 21.3528L57.7037 19.4812L62.084 13.6836C63.9555 11.5136 64.2569 8.34734 62.7897 5.85266C61.5773 3.80109 59.3515 2.53266 56.9763 2.53266C56.3888 2.53266 55.8074 2.60734 55.2418 2.75797L54.8873 2.85281L54.5516 2.99891L38.7002 9.95031L38.464 10.0528L26.601 4.23953C21.5898 1.77422 15.8357 0.300781 11.216 0.300781C4.38006 0.300781 1.77178 3.52453 0.82678 5.44563C-2.00228 11.2044 2.43709 17.01 14.0201 22.7005L25.796 28.4998L32.4579 58.0358C33.1357 61.2875 36.1076 63.703 39.5085 63.703L39.863 63.6937C43.3573 63.518 46.1737 60.9269 46.6524 57.4919L49.901 40.3628L53.8926 42.3291L53.9454 42.3555L54.0015 42.3805C57.3058 43.9067 60.7287 44.7119 63.9027 44.7119C69.0694 44.7119 73.1044 42.5328 74.9729 38.7308L74.9977 38.678L75.0226 38.6252L79.2691 29.428C80.5466 26.7622 80.1269 23.6067 78.1872 21.3653ZM74.951 27.3869L70.6888 36.6244C69.5854 38.8673 67.0269 39.9369 63.9026 39.9369C61.4715 39.9369 58.6985 39.2903 56.0032 38.0452L48.2252 34.2153L48.589 32.3889L46.7983 31.1952L46.3787 33.3061L45.8035 36.1692L45.8316 36.1878L41.9363 56.7444C41.8058 57.9427 40.8296 58.8644 39.6297 58.925L39.5085 58.9281C38.3521 58.9281 37.3541 58.1198 37.1147 56.9852L29.9522 25.2236L16.1247 18.4155C12.1332 16.4539 3.15209 11.5467 5.11366 7.55359C5.91897 5.91234 8.05459 5.15672 10.8104 5.08844C8.31569 10.4369 14.6637 12.9923 14.6637 12.9923L16.2554 9.80906C14.1321 9.01328 13.8679 7.15734 14.1321 6.36156C14.1321 6.36156 14.3079 5.92781 14.603 5.36203C17.7974 5.85484 21.3287 6.96766 24.4996 8.52672L38.3521 15.3163L44.3737 18.1653L46.4969 17.1036L40.6185 14.3228L56.4699 7.37328C56.6377 7.32984 56.8055 7.30797 56.9735 7.30797C57.6604 7.30797 58.3133 7.66547 58.6738 8.27641C59.1246 9.03953 59.0065 10.0095 58.394 10.6438L50.4016 21.2227L59.4138 25.637C60.2501 26.0489 61.164 26.2589 62.081 26.2589C62.7058 26.2589 63.3307 26.1608 63.9369 25.9652L71.7677 23.7066C72.0349 23.6197 72.3087 23.5792 72.579 23.5792C73.3346 23.5792 74.068 23.9025 74.5779 24.4931C75.2743 25.2948 75.4204 26.4358 74.951 27.3869Z" fill="#FF2D1F"/>
<path d="M20.8919 12.9941C19.7947 12.9941 18.9023 13.8848 18.9023 14.9837C18.9023 16.0826 19.7947 16.9734 20.8919 16.9734C21.9923 16.9734 22.8816 16.0826 22.8816 14.9837C22.8814 13.8849 21.9923 12.9941 20.8919 12.9941Z" fill="#FF2D1F"/>
<path d="M28.595 16.5723C27.4945 16.5723 26.6055 17.4629 26.6055 18.5618C26.6055 19.6607 27.4945 20.5513 28.595 20.5513C29.6925 20.5513 30.5845 19.6607 30.5845 18.5618C30.5845 17.463 29.6925 16.5723 28.595 16.5723Z" fill="#FF2D1F"/>
<path d="M36.2864 20.1523C35.1889 20.1523 34.2969 21.043 34.2969 22.1419C34.2969 23.2408 35.1891 24.1314 36.2864 24.1314C37.3869 24.1314 38.2759 23.2408 38.2759 22.1419C38.2759 21.043 37.3869 20.1523 36.2864 20.1523Z" fill="#FF2D1F"/>
<path d="M43.9778 23.7383C42.8773 23.7383 41.9883 24.6289 41.9883 25.7278C41.9883 26.8267 42.8773 27.7173 43.9778 27.7173C45.0753 27.7173 45.9673 26.8267 45.9673 25.7278C45.9673 24.6291 45.0753 23.7383 43.9778 23.7383Z" fill="#FF2D1F"/>
</svg>
