<svg width="82" height="44" viewBox="0 0 82 44" fill="none" xmlns="http://www.w3.org/2000/svg">
<path fill-rule="evenodd" clip-rule="evenodd" d="M13.4055 37.636H3.49609C2.66797 37.636 1.87265 37.3063 1.28672 36.7203C0.700779 36.1344 0.371094 35.3391 0.371094 34.511C0.371094 29.3656 0.371094 19.3266 0.371094 15.761C0.371094 14.9328 0.700779 14.1375 1.28672 13.5516C3.39922 11.4391 8.68516 6.15315 11.9555 2.88128C13.7133 1.12346 16.0992 0.135956 18.5851 0.135956C25.6851 0.135956 40.682 0.135956 47.782 0.135956C50.268 0.135956 52.6539 1.12346 54.4117 2.88128L64.1648 12.636H72.2461C74.732 12.636 77.1164 13.6235 78.8758 15.3813C80.6336 17.1407 81.6211 19.525 81.6211 22.011C81.6211 26.4203 81.6211 31.3844 81.6211 34.511C81.6211 35.3391 81.2914 36.1344 80.7055 36.7203C80.1195 37.3063 79.3242 37.636 78.4961 37.636H68.5867C67.2992 41.275 63.8242 43.886 59.7461 43.886C55.668 43.886 52.193 41.275 50.9055 37.636H31.0867C29.7992 41.275 26.3242 43.886 22.2461 43.886C18.168 43.886 14.693 41.275 13.4055 37.636ZM59.7461 31.386C58.0211 31.386 56.6211 32.786 56.6211 34.511C56.6211 36.236 58.0211 37.636 59.7461 37.636C61.4711 37.636 62.8711 36.236 62.8711 34.511C62.8711 32.786 61.4711 31.386 59.7461 31.386ZM22.2461 31.386C20.5211 31.386 19.1211 32.786 19.1211 34.511C19.1211 36.236 20.5211 37.636 22.2461 37.636C23.9711 37.636 25.3711 36.236 25.3711 34.511C25.3711 32.786 23.9711 31.386 22.2461 31.386ZM68.5867 31.386H75.3711V22.011C75.3711 20.2844 73.9727 18.886 72.2461 18.886C68.1774 18.886 61.5773 18.886 61.5773 18.886H34.7461C33.0195 18.886 31.6211 17.4875 31.6211 15.761C31.6211 14.9328 31.9508 14.1375 32.5367 13.5516C33.1226 12.9656 33.918 12.636 34.7461 12.636C41.1836 12.636 55.3273 12.636 55.3273 12.636C55.3273 12.636 51.7273 9.03752 49.9914 7.30158C49.4055 6.71564 48.6117 6.38596 47.782 6.38596C42.6445 6.38596 23.7226 6.38596 18.5851 6.38596C17.7555 6.38596 16.9617 6.71564 16.3758 7.30158C13.7898 9.88595 6.62109 17.0547 6.62109 17.0547V31.386H13.4055C14.693 27.7469 18.168 25.136 22.2461 25.136C26.3242 25.136 29.7992 27.7469 31.0867 31.386H50.9055C52.193 27.7469 55.668 25.136 59.7461 25.136C63.8242 25.136 67.2992 27.7469 68.5867 31.386Z" fill="#FF2D1F"/>
</svg>
