<svg width="70" height="57" viewBox="0 0 70 57" fill="none" xmlns="http://www.w3.org/2000/svg">
<path fill-rule="evenodd" clip-rule="evenodd" d="M9.38052 3.68098C10.1089 1.4981 12.469 0.319004 14.6519 1.0474L17.808 2.10055C17.8082 2.10061 17.8078 2.10049 17.808 2.10055C18.2591 2.25089 18.7442 2.26965 19.2055 2.1543L20.3244 1.87456C20.3247 1.8745 20.3242 1.87463 20.3244 1.87456C20.3246 1.87452 20.3256 1.87428 20.3257 1.87424C22.1395 1.4204 24.0399 1.44372 25.842 1.94194C27.6446 2.44028 29.2874 3.39677 30.6107 4.71832L31.2793 5.38689C32.9065 7.01409 32.9065 9.6523 31.2793 11.2795C30.4717 12.0871 29.4151 12.4939 28.3566 12.4998H37.5963C39.5225 12.4998 41.1976 13.82 41.6477 15.6929L43.2836 22.4998H63.333C64.8093 22.4998 66.1754 23.2811 66.9241 24.5535C67.6728 25.8259 67.6923 27.3995 66.9753 28.6901L58.642 43.6901C57.5244 45.7017 54.9877 46.4264 52.9761 45.3089C50.9645 44.1913 50.2397 41.6546 51.3573 39.643L56.2516 30.8332H13.5273L15.7338 40.7626C16.233 43.0091 14.8166 45.2348 12.5702 45.734C10.3238 46.2332 8.09803 44.8168 7.59883 42.5704L4.2655 27.5704C3.99133 26.3367 4.29196 25.0452 5.08278 24.0593C5.8736 23.0735 7.06913 22.4998 8.33298 22.4998H17.4996V16.6665C17.4996 14.3653 19.3651 12.4998 21.6663 12.4998H28.3093C27.2509 12.4939 26.1943 12.0871 25.3867 11.2795L24.7219 10.6147C24.7216 10.6145 24.7214 10.6142 24.7211 10.6139C24.4159 10.3094 24.0371 10.0889 23.6215 9.97404C23.2055 9.85904 22.7668 9.85369 22.3482 9.95849L21.2272 10.2388C21.2271 10.2388 21.2272 10.2387 21.2272 10.2388C19.2276 10.7387 17.1266 10.658 15.1713 10.0058L12.0141 8.95232C9.83122 8.22393 8.65212 5.86387 9.38052 3.68098ZM25.833 22.4998H34.7129L34.3124 20.8332H25.833V22.4998ZM27.4996 36.6665C27.4996 34.3653 29.3651 32.4998 31.6663 32.4998H31.9996C34.3008 32.4998 36.1663 34.3653 36.1663 36.6665C36.1663 38.9677 34.3008 40.8332 31.9996 40.8332H31.6663C29.3651 40.8332 27.4996 38.9677 27.4996 36.6665ZM23.3346 53.3784C22.5448 53.3784 21.7633 53.5388 21.0373 53.8498L17.5719 55.3359L17.5709 55.3364C15.6789 56.1472 13.6329 56.536 11.5753 56.4756C9.5177 56.4153 7.49799 55.9072 5.65672 54.9869L3.13624 53.7267C1.07798 52.6975 0.243704 50.1947 1.27283 48.1365C2.30197 46.0782 4.80479 45.2439 6.86305 46.2731L9.38256 47.5328C10.1407 47.9118 10.9724 48.121 11.8196 48.1458C12.6665 48.1706 13.5086 48.0107 14.2874 47.6771C14.2877 47.677 14.288 47.6768 14.2884 47.6767L17.7553 46.1899C19.5184 45.4345 21.4165 45.045 23.3346 45.045C25.2527 45.045 27.1509 45.4345 28.914 46.1899L32.3809 47.6767C32.3812 47.6768 32.3816 47.677 32.3819 47.6771C33.1607 48.0107 34.0028 48.1706 34.8497 48.1458C35.6966 48.121 36.528 47.9119 37.2859 47.5332C37.2862 47.5331 37.2857 47.5333 37.2859 47.5332L38.6624 46.8433C40.63 45.8592 42.7997 45.3468 44.9996 45.3468C47.1996 45.3468 49.3693 45.8592 51.3369 46.8433L53.1599 47.7532C54.5432 48.4449 56.1446 48.559 57.612 48.0703C57.6122 48.0702 57.6118 48.0704 57.612 48.0703L63.682 46.047C65.8651 45.3193 68.2248 46.4991 68.9525 48.6822C69.6802 50.8653 68.5004 53.225 66.3173 53.9527L60.2473 55.9761C56.6842 57.1631 52.795 56.887 49.4356 55.208L49.4327 55.2066M42.3902 54.2964C43.2004 53.8912 44.0938 53.6802 44.9996 53.6802C45.9055 53.6802 46.7989 53.8912 47.6091 54.2964L49.4327 55.2066M42.3902 54.2964L41.0126 54.9869C39.1713 55.9072 37.1516 56.4153 35.094 56.4756C33.0364 56.536 30.9904 56.1472 29.0984 55.3364L25.632 53.8498C24.906 53.5388 24.1244 53.3784 23.3346 53.3784" fill="#FF2D1F"/>
</svg>
