<svg width="173" height="173" viewBox="0 0 173 173" fill="none" xmlns="http://www.w3.org/2000/svg">
<circle cx="86.5" cy="86.5" r="86.5" fill="#FF2D1F"/>
<path d="M29 100.46V74.54H46.969V79.112H33.9469V84.044H40.0579C40.3003 84.044 40.6398 84.056 41.0763 84.08C41.5128 84.092 41.9008 84.116 42.2403 84.152C43.7438 84.308 44.9927 84.77 45.9869 85.538C46.9933 86.294 47.745 87.26 48.2421 88.436C48.7514 89.6 49.006 90.872 49.006 92.252C49.006 93.632 48.7574 94.91 48.2603 96.086C47.7632 97.25 47.0114 98.216 46.0051 98.984C45.0108 99.74 43.7559 100.196 42.2403 100.352C41.9008 100.388 41.5128 100.418 41.0763 100.442C40.652 100.454 40.3125 100.46 40.0579 100.46H29ZM33.9469 95.888H39.8396C40.0942 95.888 40.3731 95.876 40.6762 95.852C40.9793 95.828 41.2582 95.792 41.5128 95.744C42.5192 95.528 43.1861 95.066 43.5134 94.358C43.8529 93.65 44.0227 92.948 44.0227 92.252C44.0227 91.544 43.8529 90.842 43.5134 90.146C43.1861 89.438 42.5192 88.976 41.5128 88.76C41.2582 88.7 40.9793 88.664 40.6762 88.652C40.3731 88.628 40.0942 88.616 39.8396 88.616H33.9469V95.888Z" fill="#F6F6F6"/>
<path d="M72.2635 100.46H67.2438V83.18L55.8586 100.46H50.8389V74.54H55.8586V91.82L67.2438 74.54H72.2635V100.46Z" fill="#F6F6F6"/>
<path d="M73.7009 100.46L81.7033 74.54H89.0873L97.0897 100.46H91.9972L84.8678 77.6H85.8136L78.7933 100.46H73.7009ZM78.5023 95.06V90.488H92.3246V95.06H78.5023Z" fill="#F6F6F6"/>
<path d="M109.06 101C106.441 101 104.18 100.436 102.276 99.308C100.385 98.18 98.9236 96.602 97.893 94.574C96.8745 92.546 96.3653 90.188 96.3653 87.5C96.3653 84.812 96.8745 82.454 97.893 80.426C98.9236 78.398 100.385 76.82 102.276 75.692C104.18 74.564 106.441 74 109.06 74C112.067 74 114.589 74.738 116.626 76.214C118.675 77.69 120.118 79.688 120.954 82.208L115.971 83.576C115.486 82.004 114.668 80.786 113.516 79.922C112.364 79.046 110.879 78.608 109.06 78.608C107.399 78.608 106.011 78.974 104.895 79.706C103.792 80.438 102.961 81.47 102.403 82.802C101.846 84.134 101.567 85.7 101.567 87.5C101.567 89.3 101.846 90.866 102.403 92.198C102.961 93.53 103.792 94.562 104.895 95.294C106.011 96.026 107.399 96.392 109.06 96.392C110.879 96.392 112.364 95.954 113.516 95.078C114.668 94.202 115.486 92.984 115.971 91.424L120.954 92.792C120.118 95.312 118.675 97.31 116.626 98.786C114.589 100.262 112.067 101 109.06 101Z" fill="#F6F6F6"/>
<path d="M120.611 100.46L128.614 74.54H135.998L144 100.46H138.908L131.778 77.6H132.724L125.704 100.46H120.611ZM125.413 95.06V90.488H139.235V95.06H125.413Z" fill="#F6F6F6"/>
</svg>
