<svg width="121" height="29" viewBox="0 0 121 29" fill="none" xmlns="http://www.w3.org/2000/svg">
<path d="M0 28.42V0.579999H18.9065V5.49066H5.20503V10.788H11.6348C11.8899 10.788 12.2471 10.8009 12.7064 10.8267C13.1657 10.8396 13.5739 10.8653 13.9311 10.904C15.513 11.0716 16.8271 11.5678 17.8732 12.3927C18.932 13.2047 19.723 14.2422 20.2461 15.5053C20.7819 16.7556 21.0498 18.1218 21.0498 19.604C21.0498 21.0862 20.7882 22.4589 20.2652 23.722C19.7421 24.9722 18.9512 26.0098 17.8923 26.8347C16.8462 27.6467 15.5258 28.1364 13.9311 28.304C13.5739 28.3427 13.1657 28.3749 12.7064 28.4007C12.2599 28.4136 11.9027 28.42 11.6348 28.42H0ZM5.20503 23.5093H11.4051C11.6731 23.5093 11.9665 23.4964 12.2854 23.4707C12.6043 23.4449 12.8978 23.4062 13.1657 23.3547C14.2245 23.1227 14.9262 22.6264 15.2707 21.866C15.6279 21.1056 15.8065 20.3516 15.8065 19.604C15.8065 18.8436 15.6279 18.0896 15.2707 17.342C14.9262 16.5816 14.2245 16.0853 13.1657 15.8533C12.8978 15.7889 12.6043 15.7502 12.2854 15.7373C11.9665 15.7116 11.6731 15.6987 11.4051 15.6987H5.20503V23.5093Z" fill="#18191A"/>
<path d="M45.5207 28.42H40.2391V9.86L28.2599 28.42H22.9783V0.579999H28.2599V19.14L40.2391 0.579999H45.5207V28.42Z" fill="#18191A"/>
<path d="M47.0331 28.42L55.453 0.579999H63.2223L71.6422 28.42H66.284L58.7827 3.86667H59.7778L52.3912 28.42H47.0331ZM52.085 22.62V17.7093H66.6285V22.62H52.085Z" fill="#18191A"/>
<path d="M84.237 29C81.4814 29 79.1022 28.3942 77.0993 27.1827C75.1091 25.9711 73.5718 24.2762 72.4874 22.098C71.4158 19.9198 70.88 17.3871 70.88 14.5C70.88 11.6129 71.4158 9.08022 72.4874 6.902C73.5718 4.72378 75.1091 3.02889 77.0993 1.81733C79.1022 0.605778 81.4814 0 84.237 0C87.4009 0 90.0545 0.792666 92.1977 2.378C94.3537 3.96333 95.8718 6.10933 96.7521 8.816L91.5088 10.2853C90.9985 8.59689 90.1374 7.28867 88.9254 6.36067C87.7135 5.41978 86.1507 4.94933 84.237 4.94933C82.4893 4.94933 81.0286 5.34244 79.8549 6.12867C78.6939 6.91489 77.8201 8.02333 77.2332 9.454C76.6464 10.8847 76.353 12.5667 76.353 14.5C76.353 16.4333 76.6464 18.1153 77.2332 19.546C77.8201 20.9767 78.6939 22.0851 79.8549 22.8713C81.0286 23.6576 82.4893 24.0507 84.237 24.0507C86.1507 24.0507 87.7135 23.5802 88.9254 22.6393C90.1374 21.6984 90.9985 20.3902 91.5088 18.7147L96.7521 20.184C95.8718 22.8907 94.3537 25.0367 92.1977 26.622C90.0545 28.2073 87.4009 29 84.237 29Z" fill="#18191A"/>
<path d="M96.3909 28.42L104.811 0.579999H112.58L121 28.42H115.642L108.141 3.86667H109.136L101.749 28.42H96.3909ZM101.443 22.62V17.7093H115.986V22.62H101.443Z" fill="#18191A"/>
</svg>
